<?xml version="1.0" standalone="no"?>
<!DOCTYPE svg PUBLIC "-//W3C//DTD SVG 1.1//EN" "http://www.w3.org/Graphics/SVG/1.1/DTD/svg11.dtd" >
<svg xmlns="http://www.w3.org/2000/svg">
<metadata></metadata>
<defs>
<font id="bnpp_sansitalic" horiz-adv-x="1085" >
<font-face units-per-em="2048" ascent="1546" descent="-502" />
<missing-glyph horiz-adv-x="548" />
<glyph unicode="&#xfb01;" horiz-adv-x="1198" d="M-334 -416l72 178q74 -34 123 -34q100 0 125 112l225 1067h-152l39 180h152l16 74q40 190 164.5 282.5t304.5 92.5q115 0 199 -35l-78 -180q-66 27 -147 27q-83 0 -141 -44t-79 -137l-16 -80h629l-232 -1087h-223l193 907h-406l-235 -1110q-28 -129 -120.5 -198.5 t-209.5 -69.5q-115 0 -203 55zM909 1233l52 242h223l-51 -242h-224z" />
<glyph unicode="&#xfb02;" horiz-adv-x="1261" d="M-334 -416l72 178q74 -34 123 -34q100 0 125 112l225 1067h-152l39 180h152l16 74q40 190 164.5 282.5t304.5 92.5q115 0 199 -35l-78 -180q-66 27 -147 27q-83 0 -141 -44t-79 -137l-16 -80h268l-65 -180h-242l-235 -1110q-28 -129 -120.5 -198.5t-209.5 -69.5 q-115 0 -203 55zM702 242l265 1253l233 41l-272 -1286q-8 -41 7.5 -56.5t51.5 -15.5q56 0 141 45l-24 -198q-91 -52 -207 -52q-114 0 -168.5 68.5t-26.5 200.5z" />
<glyph horiz-adv-x="0" />
<glyph horiz-adv-x="682" />
<glyph unicode=" "  horiz-adv-x="548" />
<glyph unicode="&#x09;" horiz-adv-x="548" />
<glyph unicode="&#xa0;" horiz-adv-x="548" />
<glyph unicode="!" horiz-adv-x="591" d="M23 0l51 238h235l-51 -238h-235zM119 385l209 1049h239l-237 -1049h-211z" />
<glyph unicode="&#x22;" horiz-adv-x="876" d="M180 948l105 486h202l-104 -486h-203zM575 948l105 486h203l-105 -486h-203z" />
<glyph unicode="#" horiz-adv-x="1265" d="M-74 365l68 176h239l136 348h-242l72 178h241l142 367h192l-141 -367h272l142 367h192l-141 -367h241l-71 -178h-240l-135 -348h240l-68 -176h-242l-141 -365h-193l142 365h-273l-141 -365h-192l141 365h-240zM426 541h274l136 348h-275z" />
<glyph unicode="$" d="M-14 233l116 166q49 -76 139 -121t187 -45q95 0 162.5 36.5t81.5 117.5q8 48 -17.5 83.5t-73 60t-106 47.5t-117 53t-105.5 69t-72 103.5t-15 148.5q10 86 49.5 154.5t99 112.5t128 70t145.5 36l47 211h176l-47 -217q67 -12 117 -40.5t78 -66.5t44.5 -84.5t16.5 -95 t-6 -98.5l-217 -31q8 42 3.5 84.5t-18.5 76t-53 54.5t-100 21q-85 0 -154 -43.5t-80 -128.5q-7 -53 20 -93t75.5 -65.5t108 -49t119.5 -51.5t108 -64t75 -96t19 -138q-8 -84 -46.5 -151.5t-98.5 -111t-130.5 -70.5t-152.5 -38l-48 -219h-176l49 223q-106 12 -194 62 t-137 128z" />
<glyph unicode="%" horiz-adv-x="1542" d="M68 0l1214 1434h193l-1217 -1434h-190zM164 1053q24 192 115 299.5t253 107.5q118 2 179 -77t37 -234q-24 -192 -115.5 -301t-253.5 -109q-117 0 -178 80t-37 234zM334 1069q-17 -96 2.5 -136t75.5 -40q63 0 107 59t61 181q15 96 -4.5 136t-73.5 40q-136 0 -168 -240z M791 285q24 191 116 300t252 109q116 0 177.5 -79t39.5 -232q-24 -191 -116 -300.5t-252 -109.5q-116 0 -177.5 79.5t-39.5 232.5zM961 303q-17 -96 2.5 -136t76.5 -40q62 0 106 58.5t60 181.5q17 94 -2.5 134t-75.5 40q-135 0 -167 -238z" />
<glyph unicode="&#x26;" horiz-adv-x="1245" d="M-29 297q0 155 96 274t261 193q-99 138 -99 285q0 175 129.5 293t360.5 118q162 0 251 -83.5t89 -211.5q0 -150 -110.5 -263.5t-289.5 -190.5l195 -240q46 81 76 219h190q-2 -7 -4 -21.5t-4 -21.5q-37 -178 -137 -332l254 -315h-289l-123 143q-178 -170 -428 -170 q-198 0 -308 90.5t-110 233.5zM205 332q0 -78 60.5 -116t160.5 -38q79 0 152 28.5t122 80.5l-264 327q-108 -50 -169.5 -115.5t-61.5 -166.5zM467 1061q0 -106 84 -203q147 61 211.5 124.5t64.5 154.5q0 57 -40 87.5t-111 30.5q-99 0 -154 -55.5t-55 -138.5z" />
<glyph unicode="'" horiz-adv-x="481" d="M180 948l105 486h202l-104 -486h-203z" />
<glyph unicode="(" horiz-adv-x="700" d="M84 297.5q2 140.5 29 277.5q110 549 583 961h232q-504 -430 -613 -963q-31 -170 -28 -328.5t35 -303t77 -253.5t97 -180h-207q-37 58 -71.5 133t-66.5 182t-50.5 220.5t-16.5 254z" />
<glyph unicode=")" horiz-adv-x="700" d="M-303 -492q503 429 612 963q31 170 28.5 329t-34.5 302.5t-77 253t-97 180.5h207q37 -58 71.5 -133t66.5 -182t50.5 -220.5t16.5 -254t-29 -277.5q-110 -548 -584 -961h-231z" />
<glyph unicode="*" horiz-adv-x="1003" d="M141 924l305 141l-245 139l104 125l223 -162l50 267h151l-65 -267l292 162l48 -139l-306 -141l246 -140l-104 -125l-224 162l-49 -266h-151l65 266l-293 -162z" />
<glyph unicode="+" d="M102 584l43 194h320l67 322h195l-68 -322h322l-43 -194h-322l-67 -322h-195l68 322h-320z" />
<glyph unicode="," horiz-adv-x="481" d="M-195 -270l258 508h246l-305 -508h-199z" />
<glyph unicode="-" horiz-adv-x="854" d="M127 584l43 194h539l-43 -194h-539z" />
<glyph unicode="." horiz-adv-x="481" d="M-31 0l51 238h236l-51 -238h-236z" />
<glyph unicode="/" horiz-adv-x="757" d="M-133 0l823 1434h201l-828 -1434h-196z" />
<glyph unicode="0" d="M32 371q-8 141 25 342q68 376 240.5 561.5t409.5 185.5q100 0 173 -40.5t121.5 -129.5t54 -229.5t-29.5 -341.5q-142 -746 -649 -746q-95 0 -166.5 40t-121 128.5t-57.5 229.5zM251.5 401q6.5 -119 50 -171t126.5 -52q129 0 218.5 125.5t150.5 415.5q44 194 37.5 313 t-50.5 171t-129 52q-124 0 -215 -130.5t-151 -409.5q-44 -195 -37.5 -314z" />
<glyph unicode="1" d="M-2 0l41 205h332l207 971l-367 -168l51 231l416 195h184l-262 -1229h297l-43 -205h-856z" />
<glyph unicode="2" d="M-37 0l37 178l575 537q121 111 174.5 198t53.5 187q0 74 -49.5 114.5t-130.5 40.5q-219 0 -275 -243l-213 41q14 65 37.5 120.5t65 110t96.5 92t136.5 61t180.5 23.5q178 0 283.5 -96.5t105.5 -249.5q0 -138 -76.5 -265.5t-230.5 -266.5l-407 -371h565l-45 -211h-883z " />
<glyph unicode="3" d="M-4 152l106 180q49 -71 135.5 -112.5t182.5 -41.5q117 0 194 57t99 158q25 118 -34.5 169.5t-189.5 51.5h-151l43 205h139q113 0 190 64t91 166q12 97 -30 151.5t-134 54.5q-110 0 -181.5 -60.5t-97.5 -162.5l-208 43q41 176 166 280.5t337 104.5q190 0 296.5 -112.5 t86.5 -284.5q-12 -108 -73 -196t-181 -134q209 -76 160 -342q-37 -200 -189.5 -309t-369.5 -109q-127 0 -225.5 51t-161.5 128z" />
<glyph unicode="4" d="M-61 330l43 198l720 906h320l-193 -902h168l-43 -202h-168l-69 -330h-219l69 330h-628zM229 532h381l140 648z" />
<glyph unicode="5" d="M-29 152l107 180q49 -71 137.5 -112.5t185.5 -41.5q69 0 124 25t89 67.5t52 95t18 109.5q0 87 -54.5 145t-164.5 58q-124 0 -234 -29l-100 78l150 707h774l-45 -220h-559l-72 -342q45 11 145 11q193 0 295.5 -104.5t102.5 -270.5q0 -241 -147 -388t-396 -147 q-135 1 -246 51.5t-162 127.5z" />
<glyph unicode="6" d="M23 432q0 88 9.5 180t32 194.5t56.5 194.5t88 177t121 147t160 98.5t202 36.5q178 0 271 -103.5t81 -277.5l-223 -45q0 30 -0.5 44t-3.5 42t-8.5 43t-18 35.5t-30 30.5t-45 18t-62.5 8q-119 0 -209 -113.5t-141 -348.5q116 77 279 77q72 0 134 -18t113.5 -55t81 -101.5 t29.5 -150.5q0 -185 -71 -316t-191.5 -193.5t-278.5 -62.5q-169 0 -272.5 125.5t-103.5 333.5zM247 382.5q5 -60.5 23.5 -104t62.5 -73t111 -29.5q116 0 192.5 88.5t76.5 235.5q0 90 -52.5 132t-140.5 42q-67 0 -141 -23t-117 -57q-10 -54 -15 -102.5t0 -109z" />
<glyph unicode="7" d="M-12 0l841 1221h-653l45 213h916l-37 -177l-858 -1257h-254z" />
<glyph unicode="8" d="M-8 397q16 132 95 217.5t198 126.5q-76 51 -104 126.5t-13 189.5q25 186 170.5 294.5t363.5 108.5q186 0 290 -116t73 -287q-22 -124 -84.5 -199t-169.5 -121q86 -36 129.5 -120t20.5 -220q-35 -202 -190 -313t-384 -111q-213 0 -315.5 118t-79.5 306zM221 403 q-24 -109 35 -167t172 -58q115 0 198 57.5t107 167.5q24 111 -31 166.5t-178 55.5t-201 -55t-102 -167zM391 1038q-19 -91 29.5 -151t146.5 -60t173 60t94 151q23 106 -23 161.5t-154 55.5q-107 0 -175 -55t-91 -162z" />
<glyph unicode="9" d="M-23 150l107 176q47 -71 130.5 -110.5t180.5 -39.5q129 0 222.5 114.5t142.5 338.5q-124 -68 -266 -68q-162 0 -262.5 83.5t-100.5 248.5q0 156 61.5 283.5t185 205.5t288.5 78q185 0 283.5 -112.5t101.5 -317.5q0 -153 -35 -317q-80 -380 -250 -560t-404 -180 q-133 0 -232 48.5t-153 128.5zM360 938q0 -93 53.5 -137.5t139.5 -44.5q65 0 134.5 21t117.5 54q18 119 18 173q0 131 -45.5 191t-138.5 60q-120 0 -199.5 -88.5t-79.5 -228.5z" />
<glyph unicode=":" horiz-adv-x="481" d="M-31 0l51 238h236l-51 -238h-236zM150 850l51 237h235l-51 -237h-235z" />
<glyph unicode=";" horiz-adv-x="481" d="M-211 -270l258 508h246l-320 -508h-184zM150 850l51 237h235l-51 -237h-235z" />
<glyph unicode="&#x3c;" d="M98 559l52 242l897 289l-46 -207l-684 -211l596 -211l-41 -191z" />
<glyph unicode="=" d="M55 354l41 195h836l-41 -195h-836zM147 791l41 194h836l-41 -194h-836z" />
<glyph unicode="&#x3e;" d="M37 270l45 207l684 211l-596 211l41 191l774 -289l-51 -242z" />
<glyph unicode="?" horiz-adv-x="978" d="M162 1077q102 383 497 383q84 0 150.5 -24.5t107 -66.5t61.5 -94t21 -110q0 -76 -21.5 -141t-64 -120.5t-85.5 -95.5t-107 -89q-49 -37 -69 -53.5t-48.5 -46t-42 -58t-28.5 -72.5t-29 -106h-215q23 104 43 166t54 114t72 87t111 90q39 30 58 45t50.5 45t46.5 54.5 t27.5 60.5t12.5 75q0 59 -34 97t-107 38q-54 0 -99.5 -19.5t-75.5 -53t-49.5 -70t-31.5 -78.5zM199 0l49 238h235l-49 -238h-235z" />
<glyph unicode="@" horiz-adv-x="1607" d="M33 232.5q-31 139.5 2 318.5q61 336 300 536.5t578 200.5q209 0 352.5 -89.5t201 -248.5t20.5 -362q-40 -219 -159.5 -339t-270.5 -120q-76 0 -126 30.5t-63 88.5q-124 -105 -258 -105q-55 0 -101.5 22t-83.5 72.5t-45.5 131.5t13.5 198q20 95 59 169t85 118.5t100.5 73 t102 39t94.5 10.5q89 0 173.5 -30.5t139.5 -69.5l-98 -459q-23 -113 79 -113q66 0 122.5 78.5t82.5 204.5q35 168 -1 292.5t-150.5 195.5t-298.5 71q-171 0 -315 -70.5t-245.5 -206t-140.5 -319.5q-61 -287 67.5 -445.5t414.5 -158.5q247 0 448 94l18 -139 q-218 -101 -499 -101q-154 0 -278.5 50t-206.5 146t-113 235.5zM584 561q-51 -246 88 -246q95 0 188 97l76 358q-65 35 -135 35q-30 0 -59 -11t-60.5 -36t-57 -75.5t-40.5 -121.5z" />
<glyph unicode="A" horiz-adv-x="1114" d="M-178 0l739 1434h295l133 -1434h-233l-27 338h-502l-170 -338h-235zM328 537h385l-54 659z" />
<glyph unicode="B" horiz-adv-x="1163" d="M25 0l305 1434h395q95 0 171.5 -24t130 -71t73.5 -123q10 -38 10 -81t-10 -91q-25 -120 -86.5 -193.5t-192.5 -115.5q201 -46 201 -236q0 -46 -12 -102q-44 -210 -189 -303.5t-393 -93.5h-403zM289 205h182q134 0 207 48t96 155q9 40 9 72q0 60 -32 92q-48 48 -192 49 h-180zM422 823h178q107 0 178.5 55.5t93.5 155.5q8 36 8 65q0 58 -32 87q-46 43 -168 43h-172z" />
<glyph unicode="C" horiz-adv-x="1142" d="M84 721q75 384 245 561.5t445 177.5q84 0 150 -23t106.5 -63t66 -94.5t28.5 -117.5q1 -15 1 -29q0 -50 -8 -103l-219 -26q5 30 5 58q0 18 -2 36q-5 46 -19.5 80.5t-54 55.5t-101.5 21q-166 0 -261 -122.5t-155 -411.5q-26 -125 -31 -217q-1 -23 -1 -44q0 -64 11 -110 q15 -62 51 -100.5t87 -55t123 -16.5q178 0 369 109l-5 -211q-197 -103 -428 -103q-275 0 -375 193q-58 112 -58 281q0 122 30 274z" />
<glyph unicode="D" horiz-adv-x="1302" d="M33 0l305 1434h461q125 0 217.5 -40t153.5 -125t74 -217q4 -37 3 -77q0 -106 -24 -238q-38 -194 -108 -337t-166 -230t-210.5 -128.5t-251.5 -41.5h-454zM299 205h223q87 0 155.5 25t129.5 83.5t108 163.5t80 258q24 113 26 197v18q0 74 -15 124q-17 56 -55 91 t-89.5 49.5t-122.5 14.5h-223z" />
<glyph unicode="E" horiz-adv-x="1083" d="M25 0l305 1434h774l-43 -205h-553l-84 -395h528l-45 -207h-528l-90 -422h581l-43 -205h-802z" />
<glyph unicode="F" horiz-adv-x="1042" d="M25 0l305 1434h788l-43 -205h-567l-92 -428h485l-43 -205h-485l-127 -596h-221z" />
<glyph unicode="G" horiz-adv-x="1314" d="M59 448v15q0 118 31 268q150 729 737 729q113 0 198.5 -36.5t132.5 -98t64 -137.5q11 -44 11 -90q0 -35 -6 -70l-217 -24q4 29 4 54q0 83 -38 132q-48 65 -185 65q-178 0 -296.5 -121.5t-177.5 -400.5q-34 -154 -34 -261q0 -35 3 -65q15 -123 72.5 -176t163.5 -53 q162 0 344 121l56 272h-291l43 197h514l-164 -768h-205l19 84q-61 -44 -164.5 -77.5t-198.5 -33.5q-94 0 -169 28t-131.5 86t-85 148t-30.5 213z" />
<glyph unicode="H" horiz-adv-x="1384" d="M25 0l305 1434h221l-127 -600h586l127 600h221l-305 -1434h-222l134 621h-586l-133 -621h-221z" />
<glyph unicode="I" horiz-adv-x="577" d="M25 0l305 1434h221l-305 -1434h-221z" />
<glyph unicode="J" horiz-adv-x="624" d="M-162 33l76 186q48 -41 119 -41q42 0 67.5 25.5t38.5 85.5l242 1145h223l-250 -1174q-31 -147 -109.5 -217t-209.5 -70q-118 0 -197 60z" />
<glyph unicode="K" horiz-adv-x="1171" d="M25 0l305 1434h221l-148 -699l650 699h256l-564 -603l275 -831h-244l-215 645l-227 -244l-86 -401h-223z" />
<glyph unicode="L" horiz-adv-x="940" d="M25 0l305 1434h221l-262 -1229h514l-43 -205h-735z" />
<glyph unicode="M" horiz-adv-x="1720" d="M-43 0l434 1434h266l150 -985l555 985h270l-174 -1434h-229l131 1040l-524 -925h-201l-137 925l-312 -1040h-229z" />
<glyph unicode="N" horiz-adv-x="1417" d="M25 0l305 1434h215l409 -1043l220 1043h217l-306 -1434h-213l-413 1034l-217 -1034h-217z" />
<glyph unicode="O" horiz-adv-x="1273" d="M58 428v24q0 115 30 261q31 160 84.5 287t120 212.5t149.5 141.5t170.5 81t184.5 25q95 0 168.5 -24.5t130.5 -79t84.5 -141t31.5 -209.5v-24q0 -115 -30 -261q-39 -199 -110.5 -346.5t-166.5 -233.5t-202.5 -127t-229.5 -41q-95 0 -168.5 25t-130.5 79.5t-84.5 140.5 t-31.5 210zM284 502q-1 -22 -2 -42q0 -64 12 -110q14 -60 46.5 -99.5t76.5 -56t103 -16.5q76 0 138 27t118.5 88t102 167.5t77.5 258.5q26 120 30 212q1 22 1 42q1 65 -11 111q-14 61 -46.5 99.5t-76.5 55t-103 16.5q-60 0 -111.5 -16t-100.5 -55t-89 -100t-75 -154 t-61 -215q-25 -121 -29 -213z" />
<glyph unicode="P" horiz-adv-x="1155" d="M25 0l305 1434h385q411 0 411 -343q0 -58 -12 -126q-22 -127 -75.5 -221.5t-134 -150.5t-178.5 -83t-216 -27q-90 0 -158 15l-106 -498h-221zM397 702q57 -14 142 -14q146 0 232 58.5t118 207.5q13 62 13 108q0 71 -30 107q-50 60 -200 60h-164z" />
<glyph unicode="Q" horiz-adv-x="1273" d="M60 374q-1 25 -1 51q0 123 29 288q31 160 84.5 287t120 212.5t149.5 141.5t170.5 81t184.5 25q95 0 168.5 -24.5t130.5 -79t84.5 -141t31.5 -209.5v-24q0 -115 -30 -261q-60 -306 -192 -482t-314 -235l129 -352h-252l-96 321q-116 3 -198.5 44t-136.5 129.5t-62 227.5z M284 502q-2 -21 -2 -42q0 -64 12 -110q14 -61 46.5 -100t76.5 -55.5t103 -16.5q76 0 138 27t118.5 88t102 167.5t77.5 258.5q25 120 30 212q1 22 1 42q0 64 -11 111q-15 61 -47 99.5t-76 55t-103 16.5q-60 0 -111.5 -16t-100.5 -55t-89 -100t-75 -154t-61 -215 q-25 -120 -29 -213z" />
<glyph unicode="R" horiz-adv-x="1157" d="M25 0l305 1434h381q412 0 412 -332q0 -50 -9 -107q-26 -160 -111 -263t-202 -146l143 -586h-246l-120 545q-44 -6 -86 -6q-58 0 -130 10l-116 -549h-221zM406 750q80 -13 151 -13q138 0 217.5 58.5t106.5 189.5q11 50 12 88v7q0 33 -8 58q-9 27 -26 44.5t-46 28t-64 14.5 t-83 4h-158z" />
<glyph unicode="S" horiz-adv-x="1099" d="M-12 172l114 172q59 -83 150.5 -125.5t191.5 -42.5q215 0 250 168q3 16 3 31q0 35 -17 68q-25 47 -72.5 85.5t-107.5 78t-119 85.5t-105.5 99t-69.5 129q-14 47 -14 100q0 32 5 65q27 178 163.5 276.5t339.5 98.5q104 0 181 -36.5t117 -96.5q42 -60 56 -132q8 -41 8 -83 q0 -32 -5 -65l-213 -35q3 47 3 76q-1 34 -11 63q-10 31 -29.5 54t-56 36.5t-88.5 13.5q-90 0 -156.5 -44t-85.5 -132q-4 -19 -4 -37q0 -38 17 -73q25 -51 74 -91t110 -80t121.5 -84.5t107.5 -95t69 -122.5q12 -41 12 -86q0 -35 -7 -72q-34 -177 -172.5 -271t-344.5 -94 q-131 0 -239 51t-176 148z" />
<glyph unicode="T" horiz-adv-x="1110" d="M158 1229l43 205h1013l-43 -205h-397l-262 -1229h-221l262 1229h-395z" />
<glyph unicode="U" horiz-adv-x="1349" d="M113 479l202 955h222l-201 -949q-12 -57 -12 -103q0 -77 34 -126q54 -78 205 -78q292 0 357 307l200 949h221l-202 -955q-108 -506 -619 -506q-157 0 -261 67q-105 67 -141 181q-20 62 -19 132q0 60 14 126z" />
<glyph unicode="V" horiz-adv-x="1196" d="M180 1434h230l90 -1158l585 1158h238l-739 -1434h-262z" />
<glyph unicode="W" horiz-adv-x="1814" d="M178 1434h238l-4 -1123l524 1123h244l45 -1123l477 1123h235l-630 -1434h-269l-49 1110l-520 -1110h-270z" />
<glyph unicode="X" horiz-adv-x="1161" d="M-139 0l594 754l-269 680h240l195 -510l411 510h254l-575 -711l284 -723h-243l-201 553l-438 -553h-252z" />
<glyph unicode="Y" horiz-adv-x="1077" d="M143 1434h238l172 -633l436 633h240l-619 -877l-118 -557h-224l119 557z" />
<glyph unicode="Z" horiz-adv-x="1132" d="M-84 0l31 141l911 1088h-649l43 205h958l-30 -146l-914 -1083h668l-43 -205h-975z" />
<glyph unicode="[" horiz-adv-x="641" d="M-74 -471l426 2007h404l-39 -180h-203l-350 -1647h203l-39 -180h-402z" />
<glyph unicode="\" horiz-adv-x="757" d="M152 1434h200l215 -1434h-198z" />
<glyph unicode="]" horiz-adv-x="641" d="M-193 -471l39 180h203l350 1647h-202l39 180h401l-426 -2007h-404z" />
<glyph unicode="^" horiz-adv-x="1087" d="M72 719l530 715h189l225 -715h-197l-160 500l-364 -500h-223z" />
<glyph unicode="_" horiz-adv-x="993" d="M-145 -221l43 194h1026l-43 -194h-1026z" />
<glyph unicode="`" horiz-adv-x="1024" d="M233 1536h224l133 -324h-182z" />
<glyph unicode="a" horiz-adv-x="1130" d="M33 541q28 153 88.5 267.5t139.5 179t164.5 95.5t176.5 31q120 0 214.5 -24t195.5 -72l-164 -754q-9 -37 3 -55.5t40 -18.5q40 0 119 52l-27 -209q-84 -60 -190 -60q-71 0 -119 40q-43 36 -44 100q0 8 1 16q-170 -156 -346 -156q-155 0 -229 147q-44 87 -43 220 q0 90 20 201zM256 268q28 -84 121 -84q119 0 264 152l119 553q-74 39 -174 39q-50 0 -92.5 -16t-86 -55.5t-79.5 -117t-60 -188.5q-23 -117 -23 -194q0 -54 11 -89z" />
<glyph unicode="b" horiz-adv-x="1126" d="M16 115l293 1380l234 41l-111 -520q168 98 318 98q73 0 126.5 -29t91.5 -95q36 -65 42 -172q1 -21 2 -43q0 -94 -19 -220q-21 -129 -63 -230t-96.5 -166.5t-123.5 -108t-141.5 -60t-154.5 -17.5q-102 0 -211.5 40.5t-186.5 101.5zM262 219q79 -59 180 -59q50 0 92 17 t85.5 58t79 122t59.5 198q23 107 23 178q0 19 -2 37q-8 80 -36.5 111.5t-80.5 31.5q-117 0 -275 -110z" />
<glyph unicode="c" horiz-adv-x="964" d="M37 545q54 283 195 426t364 143q95 0 161 -29t97 -79q32 -51 42 -119q4 -28 4 -58q0 -42 -9 -88q-152 -13 -213 -20q3 29 3 55q-1 24 -3 46q-6 46 -39.5 76t-91.5 30q-103 0 -168.5 -87.5t-110.5 -297.5q-21 -98 -21 -171q0 -208 169 -208q72 0 157 27t164 79l8 -196 q-170 -101 -389 -101q-198 -1 -286 143q-54 89 -54 232q0 88 21 197z" />
<glyph unicode="d" horiz-adv-x="1128" d="M33 541q23 123 64 222t91 163.5t111 107.5t121 61.5t123 18.5q122 0 250 -67l94 448l233 41l-272 -1272q-3 -15 -3 -27q0 -47 46 -47q40 0 119 52l-27 -209q-84 -60 -190 -60q-71 0 -119 40q-43 36 -44 100q0 8 1 16q-170 -156 -346 -156q-155 0 -229 147q-44 87 -43 220 q0 90 20 201zM256 268q28 -84 121 -84q119 0 264 152l113 526q-43 24 -61.5 33.5t-59.5 21t-84 11.5q-42 0 -78.5 -16t-74.5 -55.5t-71 -117t-57 -188.5q-23 -117 -23 -194q0 -54 11 -89z" />
<glyph unicode="e" horiz-adv-x="1021" d="M21 282q-3 33 -3 70q0 85 17 191q52 292 198.5 431.5t364.5 139.5q99 0 169.5 -34.5t104.5 -95.5q34 -60 44 -144q3 -25 3 -50q0 -63 -16 -133l-37 -174h-614q-13 -73 -12 -128q0 -78 25 -121q44 -72 159 -72q72 0 167.5 27.5t184.5 78.5l8 -190q-182 -105 -401 -105 q-104 0 -178.5 31.5t-123.5 100.5t-60 177zM293 657h385q15 70 15 121q-1 52 -15 84q-30 66 -125 66q-98 0 -159.5 -65.5t-100.5 -205.5z" />
<glyph unicode="f" horiz-adv-x="641" d="M-334 -416l74 180q58 -36 121 -36q53 0 82.5 25.5t42.5 86.5l225 1067h-152l39 180h152l16 74q40 192 156 283.5t293 91.5q114 0 198 -35l-57 -180q-66 27 -147 27q-83 0 -141 -44t-79 -137l-16 -80h268l-65 -180h-242l-235 -1110q-29 -132 -115 -200t-215 -68 q-115 0 -203 55z" />
<glyph unicode="g" horiz-adv-x="1122" d="M-115 -342l88 176q144 -106 334 -106q92 0 159 41.5t87 134.5l41 194q-152 -125 -309 -125q-99 0 -166 58t-95 185q-13 55 -13 125q0 89 20 200q21 123 65.5 222t101 163.5t125.5 107.5t138 61.5t141 18.5q120 0 214.5 -24t195.5 -72l-236 -1112q-79 -377 -487 -377 q-231 0 -404 129zM254 268q27 -84 123 -84q119 0 264 152l117 553q-74 39 -172 39q-50 0 -93 -16.5t-87 -55.5t-80 -116.5t-60 -188.5q-23 -118 -23 -195q0 -54 11 -88z" />
<glyph unicode="h" horiz-adv-x="1153" d="M-8 0l317 1493l232 41l-113 -528q182 108 350 108q150 0 208 -96q37 -63 37 -150q0 -47 -11 -100l-162 -768h-223l164 764q6 27 6 50q0 97 -111 97q-49 0 -110 -19.5t-98.5 -38.5t-92.5 -50l-170 -803h-223z" />
<glyph unicode="i" horiz-adv-x="542" d="M-8 0l231 1087h223l-231 -1087h-223zM254 1233l51 242h223l-51 -242h-223z" />
<glyph unicode="j" horiz-adv-x="542" d="M-362 -416l73 180q58 -36 121 -36q53 0 82.5 25.5t42.5 86.5l266 1247h223l-276 -1290q-29 -132 -115 -200t-215 -68q-114 0 -202 55zM254 1233l53 242h223l-53 -242h-223z" />
<glyph unicode="k" horiz-adv-x="1009" d="M-6 0l315 1495l232 41l-191 -889l455 440h260l-436 -436l254 -651h-246l-188 498l-160 -154l-74 -344h-221z" />
<glyph unicode="l" horiz-adv-x="550" d="M20 242l265 1253l233 41l-272 -1286q-8 -41 7.5 -56.5t51.5 -15.5q56 0 141 45l-24 -198q-91 -52 -207 -52q-115 1 -169 69q-36 45 -36 118q0 37 10 82z" />
<glyph unicode="m" horiz-adv-x="1730" d="M-8 0l231 1087h201l-23 -98q190 125 355 125q89 0 139.5 -32.5t79.5 -100.5q113 64 203 98.5t180 34.5q145 0 205 -92q38 -59 39 -146q0 -49 -13 -108l-162 -768h-223l154 729q10 58 11.5 94.5t-12.5 57.5t-34 29t-53 8q-97 0 -283 -111q-2 -33 -10 -72l-156 -735h-223 l154 723q13 51 13 87q0 17 -3 30q-9 42 -31.5 56.5t-66.5 14.5q-52 0 -130.5 -33t-148.5 -75l-170 -803h-223z" />
<glyph unicode="n" horiz-adv-x="1155" d="M-8 0l231 1087h201l-23 -98q196 125 377 125q150 0 208 -96q38 -63 39 -151q0 -46 -11 -99l-164 -768h-223l161 764q6 28 6 50q0 97 -108 97q-49 0 -110 -19.5t-98.5 -38.5t-92.5 -50l-170 -803h-223z" />
<glyph unicode="o" horiz-adv-x="1071" d="M35 543q51 292 198.5 431.5t374.5 139.5q348 0 348 -377q0 -86 -18 -192q-51 -292 -198.5 -432t-374.5 -140q-348 0 -348 377q0 87 18 193zM264 543q-24 -105 -24 -182q0 -201 166 -201q76 0 129.5 33.5t96.5 118.5t77 233q24 105 24 182q0 201 -166 201 q-76 0 -129.5 -33.5t-96.5 -118.5t-77 -233z" />
<glyph unicode="p" horiz-adv-x="1126" d="M-109 -471l332 1558h201l-21 -96q174 123 347 123q54 0 97.5 -15.5t82 -54t57.5 -102t24 -159.5q1 -17 1 -35q0 -85 -19 -193q-25 -154 -80.5 -269t-133 -182t-166 -99t-189.5 -32q-110 0 -205 50l-94 -445zM262 219q79 -59 180 -59q51 0 96 20t87.5 63.5t77 122.5 t55.5 189q21 105 22 177q1 6 1 12q0 63 -15 98q-17 39 -44 55t-69 16q-113 0 -268 -114z" />
<glyph unicode="q" horiz-adv-x="1126" d="M39 541q28 153 88.5 267.5t139.5 179t164.5 95.5t176.5 31q120 0 214.5 -24t195.5 -72l-309 -1440l-236 -49l123 565q-147 -121 -305 -121q-155 0 -229 147q-43 87 -43 220q0 90 20 201zM262 268q28 -84 121 -84q119 0 264 152l119 553q-74 39 -174 39q-50 0 -92.5 -16 t-86 -55.5t-79.5 -117t-60 -188.5q-23 -117 -23 -194q0 -54 11 -89z" />
<glyph unicode="r" horiz-adv-x="868" d="M-8 0l231 1087h201l-25 -106q154 133 306 133q58 0 93 -24q36 -24 46 -70q8 -37 9 -78q0 -10 -1 -19q-2 -51 -16 -116l-203 -23q8 31 8 54q0 14 -3 26q-8 30 -50 31q-74 0 -209 -117l-164 -778h-223z" />
<glyph unicode="s" horiz-adv-x="905" d="M-49 123l88 170q46 -62 127.5 -99.5t159.5 -37.5q75 0 126.5 35t51.5 104q0 34 -23 63t-59.5 51.5t-80.5 45t-88 50t-80.5 60t-59.5 81t-23 108.5q0 156 119 258t307 102q165 0 240 -94q60 -76 60 -192q0 -28 -3 -58q-37 -4 -106 -13.5t-84 -11.5q3 25 3 48q0 57 -22 93 q-31 50 -125 50q-68 0 -121 -39.5t-53 -103.5q0 -38 23 -70t60 -55.5t81.5 -46.5t89 -50t81.5 -59.5t60 -81t23 -108.5q0 -159 -113.5 -254t-287.5 -95q-125 0 -220.5 41t-150.5 109z" />
<glyph unicode="t" horiz-adv-x="724" d="M63 909l39 178h148l39 181l235 61l-51 -242h272l-67 -178h-244l-131 -626q-4 -21 -4 -38q0 -69 70 -69q81 0 204 74v-193q-146 -84 -284 -84q-123 -1 -185 73q-41 49 -41 130q0 42 11 92l137 641h-148z" />
<glyph unicode="u" horiz-adv-x="1130" d="M51 350l156 737h223l-162 -763q-5 -27 -6 -48q0 -35 14 -56q22 -34 72 -34q67 0 155 47.5t138 108.5l158 745h223l-170 -823q-3 -15 -3 -27q0 -47 46 -47q40 0 119 52l-33 -209q-84 -60 -190 -60q-71 -1 -117 39q-41 35 -42 100q0 8 1 17q-85 -73 -180.5 -114.5 t-180.5 -41.5q-130 -1 -195 95q-41 60 -41 155q0 57 15 127z" />
<glyph unicode="v" horiz-adv-x="1013" d="M76 1087h221l102 -841l439 841h231l-594 -1087h-260z" />
<glyph unicode="w" horiz-adv-x="1564" d="M70 1087h223l43 -790l375 790h256l51 -798l364 798h244l-534 -1087h-250l-56 793l-399 -793h-250z" />
<glyph unicode="x" horiz-adv-x="987" d="M-172 0l477 561l-215 526h234l149 -380l315 380h259l-476 -544l230 -543h-240l-160 383l-323 -383h-250z" />
<glyph unicode="y" horiz-adv-x="1118" d="M-119 -342l88 176q144 -106 334 -106q92 0 158 41.5t86 134.5l41 182q-148 -113 -307 -113q-149 0 -207 101q-37 63 -37 154q0 56 14 122l156 737h223l-162 -763q-5 -27 -5 -48q0 -35 13 -56q23 -34 72 -34q67 0 155 47.5t138 108.5l158 745h223l-250 -1185 q-78 -373 -487 -373q-231 0 -404 129z" />
<glyph unicode="z" horiz-adv-x="983" d="M-82 0l31 141l669 760h-497l39 186h798l-30 -147l-670 -754h514l-39 -186h-815z" />
<glyph unicode="{" horiz-adv-x="704" d="M-2 438l39 187q83 0 140 35.5t71 107.5l96 451q37 174 124.5 257t240.5 83q107 0 168 -33l-74 -170q-47 20 -113 20q-52 0 -87.5 -30t-47.5 -86l-104 -488q-22 -101 -74.5 -157t-132.5 -83q26 -12 44.5 -24t36.5 -31t25 -42t9.5 -57.5t-9.5 -76.5l-104 -496 q-24 -118 86 -118q60 0 121 22v-170q-77 -33 -181 -33q-127 0 -191 81.5t-34 222.5l103 495q14 70 -28 101.5t-124 31.5z" />
<glyph unicode="|" horiz-adv-x="561" d="M-74 -471l426 2007h205l-428 -2007h-203z" />
<glyph unicode="}" horiz-adv-x="704" d="M-238 -461l74 170q47 -20 113 -20q52 0 87.5 30t47.5 86l104 488q22 101 74.5 156.5t132.5 82.5q-70 30 -99.5 81t-6.5 151l104 496q24 118 -86 118q-60 0 -121 -22v170q77 33 181 33q127 0 191 -81.5t34 -222.5l-103 -495q-14 -70 28 -101.5t124 -31.5l-39 -187 q-83 0 -140 -35.5t-71 -107.5l-96 -451q-37 -174 -124.5 -257t-240.5 -83q-107 0 -168 33z" />
<glyph unicode="~" d="M61 594q120 221 320 221q69 0 190.5 -39t153.5 -39q40 0 70.5 23.5t60.5 75.5q61 -28 154 -64q-120 -221 -324 -221q-58 0 -177 39t-163 39q-79 0 -131 -99z" />
<glyph unicode="&#xa1;" horiz-adv-x="591" d="M-47 -346l237 1048h211l-208 -1048h-240zM211 850l51 237h236l-52 -237h-235z" />
<glyph unicode="&#xa2;" d="M115 688q96 500 467 559l61 289h176l-61 -287q142 -15 206.5 -116t34.5 -248l-202 -21q27 207 -144 207q-113 0 -189.5 -90t-119.5 -295q-78 -375 188 -375q151 0 324 105l6 -199q-150 -86 -346 -98l-63 -299h-177l66 307q-153 39 -212.5 182.5t-14.5 378.5z" />
<glyph unicode="&#xa3;" d="M-78 0l37 178q187 61 227 236l29 202h-199l35 170h187q32 222 36 240q16 78 39.5 140t64 118.5t94.5 94t133 59.5t177 22q71 0 129.5 -17.5t96.5 -48t66 -70t38 -83.5t13.5 -89.5t-7.5 -86.5l-211 -37q16 112 -20.5 169.5t-143.5 57.5q-108 0 -163.5 -59.5t-79.5 -167.5 q-13 -91 -37 -242h438l-35 -170h-424q-26 -189 -28 -196q-16 -78 -48 -128t-96 -87h639l-43 -205h-944z" />
<glyph unicode="&#xa4;" d="M-51 295l213 176q-42 95 -15 211q24 116 103 211l-137 176l147 123l139 -174q107 61 228 61q122 0 198 -61l213 174l99 -123l-215 -176q41 -92 16 -211q-28 -120 -104 -211l137 -176l-148 -123l-139 174q-107 -61 -227 -61q-123 0 -199 61l-213 -174zM334 682 q-22 -100 21 -155.5t143 -55.5q99 0 165.5 55.5t88.5 155.5q20 100 -23 155.5t-143 55.5t-166 -55.5t-86 -155.5z" />
<glyph unicode="&#xa5;" d="M53 616l37 170h279l-203 648h246l168 -568l411 568h232l-480 -648h275l-37 -170h-350l-131 -616h-221l131 616h-357z" />
<glyph unicode="&#xa6;" horiz-adv-x="561" d="M-74 -471l170 803h205l-172 -803h-203zM180 733l172 803h205l-172 -803h-205z" />
<glyph unicode="&#xa7;" horiz-adv-x="1138" d="M-41 -8l129 153q93 -147 297 -147q192 0 223 149q10 46 -16.5 87t-76 73.5t-110.5 66t-120.5 73.5t-106 86t-68 112.5t-4.5 145.5q16 75 55.5 128.5t100.5 102.5q-3 206 123 322t346 116q72 0 129.5 -16t94 -43t63.5 -63.5t37 -77.5t14 -84t-4 -84l-211 -31q6 35 0.5 72 t-18.5 67t-48.5 49t-89.5 19q-173 0 -206 -150q-11 -51 15.5 -95t76 -77.5t110.5 -67t121.5 -71t108.5 -80t70 -104t7 -134.5q-35 -150 -159 -243q1 -209 -138.5 -324t-357.5 -115q-124 0 -227 49.5t-160 135.5zM307 782q-12 -53 13.5 -95t78 -74t110.5 -61t123.5 -71.5 t106.5 -91.5q40 40 49 94q11 53 -15.5 92.5t-80 69.5t-112.5 58.5t-123.5 75t-102.5 102.5q-31 -34 -47 -99z" />
<glyph unicode="&#xa8;" horiz-adv-x="1024" d="M236 1270l43 211h182l-43 -211h-182zM561 1270l43 211h182l-43 -211h-182z" />
<glyph unicode="&#xa9;" horiz-adv-x="1589" d="M88 717q18 152 88 289t175 237t245 158.5t291 58.5q192 0 342 -99.5t223 -270.5t49 -373q-26 -204 -138 -374t-287.5 -270t-377.5 -100q-144 0 -267 59t-205 158.5t-120 237t-18 289.5zM211 717q-22 -169 33.5 -310t180 -224t292.5 -83q158 0 302.5 83t240.5 225t118 309 q20 168 -36.5 308t-181.5 223t-292 83q-159 0 -303.5 -82.5t-239 -224t-114.5 -307.5zM449 715q40 229 153 342.5t275 113.5q118 0 188 -75t57 -197q-17 -3 -70 -13.5t-81 -13.5q8 152 -105 152q-93 0 -152.5 -72t-95.5 -237q-34 -166 -1 -234.5t133 -68.5q108 0 233 71 l23 -137q-58 -37 -136 -60.5t-153 -23.5q-162 0 -235 112t-33 341z" />
<glyph unicode="&#xaa;" horiz-adv-x="782" d="M111 983q9 96 39 181t79.5 151.5t123 105.5t161.5 39q163 0 301 -63l-113 -518q-6 -45 29 -45q29 0 84 34l-16 -131q-68 -47 -152 -47q-51 0 -81 26.5t-27 74.5q-135 -101 -246 -101q-92 0 -143.5 72.5t-38.5 220.5zM291 989q-7 -86 14 -119.5t64 -33.5q73 0 166 73 l86 389q-45 25 -121 25q-53 0 -93.5 -33t-63.5 -87t-35 -106t-17 -108z" />
<glyph unicode="&#xab;" horiz-adv-x="1275" d="M68 623l479 464h215l-447 -464l267 -486h-187zM592 623l479 464h215l-446 -464l266 -486h-186z" />
<glyph unicode="&#xac;" d="M104 584l41 194h836l-109 -516h-194l67 322h-641z" />
<glyph unicode="&#xad;" horiz-adv-x="854" d="M127 584l43 194h539l-43 -194h-539z" />
<glyph unicode="&#xae;" horiz-adv-x="1077" d="M119 954q12 101 57.5 191.5t114 156.5t161.5 105t195 39q127 0 226 -66t146.5 -179t29.5 -247q-12 -101 -57.5 -191t-114.5 -156.5t-162 -105t-195 -38.5q-127 0 -226 65.5t-146 178.5t-29 247zM217 954q-23 -168 61.5 -280.5t256.5 -112.5q166 0 281 113.5t134 279.5 q23 168 -61 281t-256 113q-166 0 -281.5 -114t-134.5 -280zM342 688l115 545h166q88 0 141 -39t41 -131q-9 -63 -38 -99t-83 -55l51 -221h-131l-43 205q-39 0 -49 2l-43 -207h-127zM535 997q10 -2 36 -2q51 0 78 14t33 52q7 48 -11.5 61t-70.5 13h-37z" />
<glyph unicode="&#xaf;" horiz-adv-x="1024" d="M215 1294l35 160h545l-35 -160h-545z" />
<glyph unicode="&#xb0;" horiz-adv-x="655" d="M168 1202q21 111 106 184.5t205 73.5q107 0 166.5 -75t40.5 -183q-19 -110 -105 -184t-206 -74q-106 0 -165 75t-42 183zM305 1202q-9 -54 17.5 -88.5t76.5 -34.5q60 0 101 34.5t49 88.5q9 56 -17 90.5t-77 34.5q-60 0 -101 -34.5t-49 -90.5z" />
<glyph unicode="&#xb1;" d="M-20 0l40 193h836l-41 -193h-835zM104 584l41 194h320l70 322h194l-70 -322h322l-41 -194h-322l-67 -322h-195l68 322h-320z" />
<glyph unicode="&#xb2;" horiz-adv-x="655" d="M59 664l23 114l326 299q81 72 94 133q23 105 -72 105q-50 0 -82.5 -34t-46.5 -83l-147 33q33 110 105.5 169.5t201.5 59.5q109 0 168.5 -67t40.5 -168q-20 -114 -154 -236l-194 -174h278l-33 -151h-508z" />
<glyph unicode="&#xb3;" horiz-adv-x="655" d="M86 778l78 113q30 -44 78 -67t100 -23q58 0 96.5 33t38.5 94q0 67 -100 67h-88l26 129h91q58 0 90 37t32 88q0 33 -19.5 51.5t-57.5 18.5q-56 0 -87.5 -30.5t-50.5 -86.5l-139 33q60 225 303 225q99 0 159 -52t60 -132q0 -147 -141 -211q47 -18 69.5 -47.5t22.5 -77.5 q0 -70 -26 -124.5t-71.5 -87.5t-101.5 -49.5t-120 -16.5q-78 0 -142.5 31t-99.5 85z" />
<glyph unicode="&#xb4;" horiz-adv-x="1024" d="M344 1212l268 324h228l-305 -324h-191z" />
<glyph unicode="&#xb6;" horiz-adv-x="1452" d="M136.5 782q-13.5 80 8.5 183q92 469 600 469h680l-350 -1643h-176l307 1446h-213l-307 -1446h-178l149 698q-41 -8 -114 -8q-76 1 -142.5 18t-123.5 53.5t-92 93t-48.5 136.5zM367 952q-32 -148 29.5 -211t205.5 -63q58 0 96 6l117 553h-113q-149 0 -225.5 -63.5 t-109.5 -221.5z" />
<glyph unicode="&#xb7;" horiz-adv-x="481" d="M88 563l51 238h236l-51 -238h-236z" />
<glyph unicode="&#xb8;" horiz-adv-x="1024" d="M197 -270l116 112q33 -61 93 -61q98 0 98 110q0 40 -21 109h181q22 -74 22 -133q0 -115 -70.5 -186.5t-201.5 -71.5q-73 0 -134 34t-83 87z" />
<glyph unicode="&#xb9;" horiz-adv-x="655" d="M80 664l33 153h170l90 428l-185 -84l33 162l240 111h117l-132 -617h164l-32 -153h-498z" />
<glyph unicode="&#xba;" horiz-adv-x="782" d="M141 1069q41 202 142 296.5t264 94.5q155 0 216 -105.5t25 -283.5q-41 -202 -142 -296.5t-265 -96.5q-153 0 -214.5 106.5t-25.5 284.5zM314 872.5q23 -53.5 98 -53.5t122.5 56.5t75.5 195.5q28 143 5.5 196.5t-97.5 53.5q-76 0 -123.5 -56.5t-75.5 -195.5 q-28 -143 -5 -196.5z" />
<glyph unicode="&#xbb;" horiz-adv-x="1275" d="M-10 137l446 465l-266 485h186l328 -485l-479 -465h-215zM514 137l447 465l-267 485h187l327 -485l-479 -465h-215z" />
<glyph unicode="&#xbc;" horiz-adv-x="1542" d="M61 664l33 153h170l90 428l-184 -84l33 162l239 111h117l-131 -617h164l-33 -153h-498zM72 0l1214 1434h184l-1216 -1434h-182zM756 164l24 115l402 491h211l-99 -463h99l-31 -143h-98l-35 -164h-158l35 164h-350zM971 307h166l57 268z" />
<glyph unicode="&#xbd;" horiz-adv-x="1542" d="M61 664l33 153h170l90 428l-184 -84l33 162l239 111h117l-131 -617h164l-33 -153h-498zM72 0l1214 1434h184l-1216 -1434h-182zM807 0l22 115l326 299q81 72 94 133q22 104 -71 104q-50 0 -82.5 -33.5t-46.5 -82.5l-148 32q33 111 105.5 170.5t201.5 59.5 q109 0 168.5 -67.5t40.5 -168.5q-20 -114 -153 -235l-195 -174h279l-33 -152h-508z" />
<glyph unicode="&#xbe;" horiz-adv-x="1542" d="M57 778l78 113q30 -44 78 -67t100 -23q58 0 97 33t39 94q0 67 -101 67h-88l27 129h90q58 0 90.5 37t32.5 88q0 33 -20 51.5t-58 18.5q-56 0 -86.5 -30.5t-50.5 -86.5l-140 33q60 225 304 225q99 0 159 -52t60 -132q0 -147 -142 -211q47 -18 69.5 -47.5t22.5 -77.5 q0 -70 -26 -124.5t-71.5 -87.5t-101.5 -49.5t-120 -16.5q-78 0 -142.5 31t-99.5 85zM70 0l1214 1434h184l-1216 -1434h-182zM754 164l24 115l402 491h211l-99 -463h99l-31 -143h-98l-35 -164h-158l35 164h-350zM969 307h166l57 268z" />
<glyph unicode="&#xbf;" horiz-adv-x="778" d="M-172 -78q0 76 21.5 141.5t64 120.5t85.5 95.5t107 89.5q50 38 69.5 54t48.5 46t42.5 58t28.5 72t29 106h215q-23 -104 -43 -166t-54.5 -114t-72.5 -87t-111 -90q-48 -36 -73 -57t-58.5 -58t-48.5 -77.5t-15 -88.5q0 -59 34.5 -97t107.5 -38q54 0 99.5 19.5t75.5 53 t49.5 70t31.5 78.5l205 -43q-102 -383 -498 -383q-84 0 -150.5 24.5t-107 66.5t-61.5 94t-21 110zM344 850l49 237h236l-49 -237h-236z" />
<glyph unicode="&#xc0;" horiz-adv-x="1114" d="M-178 0l739 1434h295l133 -1434h-233l-27 338h-502l-170 -338h-235zM328 537h385l-54 659zM461 1868h223l133 -324h-182z" />
<glyph unicode="&#xc1;" horiz-adv-x="1114" d="M-178 0l739 1434h295l133 -1434h-233l-27 338h-502l-170 -338h-235zM328 537h385l-54 659zM621 1544l268 324h227l-305 -324h-190z" />
<glyph unicode="&#xc2;" horiz-adv-x="1114" d="M-178 0l739 1434h295l133 -1434h-233l-27 338h-502l-170 -338h-235zM328 537h385l-54 659zM428 1544l262 324h201l127 -324h-170l-80 187l-156 -187h-184z" />
<glyph unicode="&#xc3;" horiz-adv-x="1114" d="M-178 0l739 1434h295l133 -1434h-233l-27 338h-502l-170 -338h-235zM328 537h385l-54 659zM438 1640q81 177 221 177q49 0 117 -33t94 -33q64 0 99 78l121 -64q-87 -176 -240 -176q-38 0 -106 34t-93 34q-31 0 -51.5 -19.5t-40.5 -58.5z" />
<glyph unicode="&#xc4;" horiz-adv-x="1114" d="M-178 0l739 1434h295l133 -1434h-233l-27 338h-502l-170 -338h-235zM328 537h385l-54 659zM492 1599l43 211h182l-43 -211h-182zM817 1599l43 211h182l-43 -211h-182z" />
<glyph unicode="&#xc5;" horiz-adv-x="1114" d="M-178 0l739 1434h295l133 -1434h-233l-27 338h-502l-170 -338h-235zM328 537h385l-54 659zM565 1704q15 78 83 130t157 52t135 -51.5t31 -130.5q-17 -79 -85 -130.5t-157 -51.5t-135 52t-29 130zM694 1704q-8 -35 7.5 -54.5t50.5 -19.5q74 0 90 74q6 35 -9.5 54.5 t-50.5 19.5t-58.5 -19.5t-29.5 -54.5z" />
<glyph unicode="&#xc6;" horiz-adv-x="1685" d="M-274 0l1091 1434h887l-43 -205h-553l-84 -395h528l-45 -207h-528l-90 -422h581l-43 -205h-802l71 338h-458l-254 -338h-258zM389 537h350l138 645z" />
<glyph unicode="&#xc7;" horiz-adv-x="1142" d="M84 721q75 384 245 561.5t445 177.5q84 0 150 -23t106.5 -63t66 -94.5t28.5 -117.5t-7 -132l-219 -26q8 48 3 93.5t-19.5 80.5t-54 56t-101.5 21q-166 0 -261 -122.5t-155 -411.5q-26 -124 -31 -216.5t10 -155t51 -100.5t87 -54.5t123 -16.5q178 0 369 109l-5 -211 q-152 -82 -340 -99q43 -155 -25 -263.5t-231 -108.5q-73 0 -134 34t-83 87l117 112q33 -61 92 -61q40 0 63.5 19.5t29 51t2.5 64.5t-13 68q-221 32 -297.5 222t-11.5 519z" />
<glyph unicode="&#xc8;" horiz-adv-x="1083" d="M25 0l305 1434h774l-43 -205h-553l-84 -395h528l-45 -207h-528l-90 -422h581l-43 -205h-802zM489 1868h224l133 -324h-182z" />
<glyph unicode="&#xc9;" horiz-adv-x="1083" d="M25 0l305 1434h774l-43 -205h-553l-84 -395h528l-45 -207h-528l-90 -422h581l-43 -205h-802zM621 1544l268 324h227l-305 -324h-190z" />
<glyph unicode="&#xca;" horiz-adv-x="1083" d="M25 0l305 1434h774l-43 -205h-553l-84 -395h528l-45 -207h-528l-90 -422h581l-43 -205h-802zM432 1544l262 324h201l127 -324h-170l-80 187l-156 -187h-184z" />
<glyph unicode="&#xcb;" horiz-adv-x="1083" d="M25 0l305 1434h774l-43 -205h-553l-84 -395h528l-45 -207h-528l-90 -422h581l-43 -205h-802zM485 1599l43 211h183l-43 -211h-183zM811 1599l43 211h182l-43 -211h-182z" />
<glyph unicode="&#xcc;" horiz-adv-x="577" d="M25 0l305 1434h221l-305 -1434h-221zM193 1868h223l133 -324h-182z" />
<glyph unicode="&#xcd;" horiz-adv-x="577" d="M25 0l305 1434h221l-305 -1434h-221zM365 1544l268 324h227l-305 -324h-190z" />
<glyph unicode="&#xce;" horiz-adv-x="577" d="M25 0l305 1434h221l-305 -1434h-221zM170 1544l262 324h201l127 -324h-170l-80 187l-156 -187h-184z" />
<glyph unicode="&#xcf;" horiz-adv-x="577" d="M25 0l305 1434h221l-305 -1434h-221zM223 1599l43 211h183l-43 -211h-183zM549 1599l43 211h182l-43 -211h-182z" />
<glyph unicode="&#xd0;" horiz-adv-x="1302" d="M16 631l41 198h152l129 605h461q125 0 217.5 -40t153.5 -125t74 -217t-21 -315q-38 -194 -108 -337t-166 -230t-210.5 -128.5t-251.5 -41.5h-454l133 631h-150zM299 205h223q87 0 155.5 25t129.5 83.5t108 163.5t80 258q24 113 26 197.5t-15 141t-55 91.5t-89.5 49.5 t-122.5 14.5h-223l-86 -400h311l-41 -198h-311z" />
<glyph unicode="&#xd1;" horiz-adv-x="1417" d="M25 0l305 1434h215l409 -1043l220 1043h217l-306 -1434h-213l-413 1034l-217 -1034h-217zM582 1640q81 177 221 177q49 0 117 -33t94 -33q63 0 98 78l121 -64q-87 -176 -240 -176q-38 0 -105.5 34t-92.5 34q-31 0 -52 -20t-41 -58z" />
<glyph unicode="&#xd2;" horiz-adv-x="1273" d="M58.5 427.5q-3.5 123.5 29.5 285.5q31 160 84.5 287t120 212.5t149.5 141.5t170.5 81t184.5 25q95 0 168.5 -24.5t130.5 -79t84.5 -141t31 -209.5t-29.5 -285q-39 -199 -110.5 -346.5t-166.5 -233.5t-202.5 -127t-229.5 -41q-95 0 -168.5 25t-130.5 79.5t-84.5 140.5 t-31 209.5zM283.5 502.5q-4.5 -92.5 10 -153t47 -99.5t76.5 -55.5t103 -16.5q76 0 138 27t118.5 88t102 167.5t77.5 258.5q25 120 29.5 212t-10 153t-46.5 99.5t-76 55t-103 16.5q-60 0 -111.5 -16t-100.5 -55t-89 -100t-75 -154t-61 -215q-25 -120 -29.5 -212.5zM551 1868 h223l133 -324h-182z" />
<glyph unicode="&#xd3;" horiz-adv-x="1273" d="M58.5 427.5q-3.5 123.5 29.5 285.5q31 160 84.5 287t120 212.5t149.5 141.5t170.5 81t184.5 25q95 0 168.5 -24.5t130.5 -79t84.5 -141t31 -209.5t-29.5 -285q-39 -199 -110.5 -346.5t-166.5 -233.5t-202.5 -127t-229.5 -41q-95 0 -168.5 25t-130.5 79.5t-84.5 140.5 t-31 209.5zM283.5 502.5q-4.5 -92.5 10 -153t47 -99.5t76.5 -55.5t103 -16.5q76 0 138 27t118.5 88t102 167.5t77.5 258.5q25 120 29.5 212t-10 153t-46.5 99.5t-76 55t-103 16.5q-60 0 -111.5 -16t-100.5 -55t-89 -100t-75 -154t-61 -215q-25 -120 -29.5 -212.5zM707 1544 l268 324h227l-305 -324h-190z" />
<glyph unicode="&#xd4;" horiz-adv-x="1273" d="M58.5 427.5q-3.5 123.5 29.5 285.5q31 160 84.5 287t120 212.5t149.5 141.5t170.5 81t184.5 25q95 0 168.5 -24.5t130.5 -79t84.5 -141t31 -209.5t-29.5 -285q-39 -199 -110.5 -346.5t-166.5 -233.5t-202.5 -127t-229.5 -41q-95 0 -168.5 25t-130.5 79.5t-84.5 140.5 t-31 209.5zM283.5 502.5q-4.5 -92.5 10 -153t47 -99.5t76.5 -55.5t103 -16.5q76 0 138 27t118.5 88t102 167.5t77.5 258.5q25 120 29.5 212t-10 153t-46.5 99.5t-76 55t-103 16.5q-60 0 -111.5 -16t-100.5 -55t-89 -100t-75 -154t-61 -215q-25 -120 -29.5 -212.5zM516 1544 l262 324h201l127 -324h-170l-80 187l-156 -187h-184z" />
<glyph unicode="&#xd5;" horiz-adv-x="1273" d="M58.5 427.5q-3.5 123.5 29.5 285.5q31 160 84.5 287t120 212.5t149.5 141.5t170.5 81t184.5 25q95 0 168.5 -24.5t130.5 -79t84.5 -141t31 -209.5t-29.5 -285q-39 -199 -110.5 -346.5t-166.5 -233.5t-202.5 -127t-229.5 -41q-95 0 -168.5 25t-130.5 79.5t-84.5 140.5 t-31 209.5zM283.5 502.5q-4.5 -92.5 10 -153t47 -99.5t76.5 -55.5t103 -16.5q76 0 138 27t118.5 88t102 167.5t77.5 258.5q25 120 29.5 212t-10 153t-46.5 99.5t-76 55t-103 16.5q-60 0 -111.5 -16t-100.5 -55t-89 -100t-75 -154t-61 -215q-25 -120 -29.5 -212.5zM518 1640 q81 177 221 177q49 0 117 -33t94 -33q64 0 99 78l120 -64q-87 -176 -239 -176q-38 0 -106 34t-93 34q-31 0 -51.5 -19.5t-40.5 -58.5z" />
<glyph unicode="&#xd6;" horiz-adv-x="1273" d="M58.5 427.5q-3.5 123.5 29.5 285.5q31 160 84.5 287t120 212.5t149.5 141.5t170.5 81t184.5 25q95 0 168.5 -24.5t130.5 -79t84.5 -141t31 -209.5t-29.5 -285q-39 -199 -110.5 -346.5t-166.5 -233.5t-202.5 -127t-229.5 -41q-95 0 -168.5 25t-130.5 79.5t-84.5 140.5 t-31 209.5zM283.5 502.5q-4.5 -92.5 10 -153t47 -99.5t76.5 -55.5t103 -16.5q76 0 138 27t118.5 88t102 167.5t77.5 258.5q25 120 29.5 212t-10 153t-46.5 99.5t-76 55t-103 16.5q-60 0 -111.5 -16t-100.5 -55t-89 -100t-75 -154t-61 -215q-25 -120 -29.5 -212.5zM569 1599 l43 211h183l-43 -211h-183zM895 1599l43 211h182l-43 -211h-182z" />
<glyph unicode="&#xd7;" d="M39 383l367 303l-236 297l162 131l233 -299l367 305l110 -143l-366 -303l233 -297l-157 -129l-234 297l-366 -303z" />
<glyph unicode="&#xd8;" horiz-adv-x="1273" d="M-45 0l149 176q-83 186 -16 537q31 160 84.5 287t120 212.5t149.5 141.5t170.5 81t184.5 25q199 0 303 -110l127 149l90 -65l-154 -179q85 -191 19 -534q-39 -199 -110.5 -346.5t-166.5 -233.5t-202.5 -127t-229.5 -41q-202 0 -307 111l-125 -147zM287 391l655 774 q-59 90 -192 90q-60 0 -111.5 -16t-100.5 -55t-89 -100t-75 -154t-61 -215q-42 -199 -26 -324zM326 270q57 -92 194 -92q76 0 138 27t118.5 88t102 167.5t77.5 258.5q42 200 27 323z" />
<glyph unicode="&#xd9;" horiz-adv-x="1349" d="M113 479l202 955h222l-201 -949q-32 -151 21.5 -229t205.5 -78q292 0 357 307l200 949h221l-202 -955q-108 -506 -619 -506q-157 0 -261 67t-140.5 181t-5.5 258zM586 1868h223l133 -324h-182z" />
<glyph unicode="&#xda;" horiz-adv-x="1349" d="M113 479l202 955h222l-201 -949q-32 -151 21.5 -229t205.5 -78q292 0 357 307l200 949h221l-202 -955q-108 -506 -619 -506q-157 0 -261 67t-140.5 181t-5.5 258zM748 1544l268 324h227l-305 -324h-190z" />
<glyph unicode="&#xdb;" horiz-adv-x="1349" d="M113 479l202 955h222l-201 -949q-32 -151 21.5 -229t205.5 -78q292 0 357 307l200 949h221l-202 -955q-108 -506 -619 -506q-157 0 -261 67t-140.5 181t-5.5 258zM557 1544l262 324h201l127 -324h-170l-80 187l-156 -187h-184z" />
<glyph unicode="&#xdc;" horiz-adv-x="1349" d="M113 479l202 955h222l-201 -949q-32 -151 21.5 -229t205.5 -78q292 0 357 307l200 949h221l-202 -955q-108 -506 -619 -506q-157 0 -261 67t-140.5 181t-5.5 258zM610 1599l43 211h183l-43 -211h-183zM936 1599l43 211h182l-43 -211h-182z" />
<glyph unicode="&#xdd;" horiz-adv-x="1077" d="M143 1434h238l172 -633l436 633h240l-619 -877l-118 -557h-224l119 557zM625 1544l268 324h227l-305 -324h-190z" />
<glyph unicode="&#xde;" horiz-adv-x="1155" d="M27 0l305 1434h221l-49 -217h166q480 0 399 -469q-22 -127 -75.5 -221.5t-134 -150.5t-178.5 -83t-216 -27q-91 0 -158 15l-59 -281h-221zM352 485q57 -14 142 -14q146 0 232 58.5t118 207.5q33 155 -17 215t-200 60h-164z" />
<glyph unicode="&#xdf;" horiz-adv-x="1146" d="M-25 0l246 1159q40 194 175 297t331 103q158 0 257 -77t99 -210q0 -79 -27 -149t-65 -118.5t-76 -89.5t-65 -78t-27 -67q0 -31 19.5 -66.5t47.5 -71t56.5 -76t48 -94.5t19.5 -112q0 -159 -101.5 -268t-275.5 -109q-194 0 -320 129l91 164q33 -43 96 -72.5t125 -29.5 q81 0 123.5 44t42.5 118q0 38 -19.5 76.5t-46.5 73t-54.5 70.5t-47 84t-19.5 99q0 59 25.5 114.5t61.5 99.5t72 87.5t61.5 95t25.5 105.5q0 56 -42 90.5t-116 34.5q-98 0 -165.5 -55t-88.5 -156l-243 -1145h-224z" />
<glyph unicode="&#xe0;" horiz-adv-x="1130" d="M33 541q28 153 88.5 267.5t139.5 179t164.5 95.5t176.5 31q120 0 214.5 -24t195.5 -72l-164 -754q-9 -37 3 -55.5t40 -18.5q40 0 119 52l-27 -209q-84 -60 -190 -60q-71 0 -119.5 40t-42.5 116q-170 -156 -346 -156q-155 0 -228.5 147t-23.5 421zM256.5 268 q27.5 -84 120.5 -84q119 0 264 152l119 553q-74 39 -174 39q-50 0 -92.5 -16t-86 -55.5t-79.5 -117t-60 -188.5q-39 -199 -11.5 -283zM383 1536h223l133 -324h-182z" />
<glyph unicode="&#xe1;" horiz-adv-x="1130" d="M33 541q28 153 88.5 267.5t139.5 179t164.5 95.5t176.5 31q120 0 214.5 -24t195.5 -72l-164 -754q-9 -37 3 -55.5t40 -18.5q40 0 119 52l-27 -209q-84 -60 -190 -60q-71 0 -119.5 40t-42.5 116q-170 -156 -346 -156q-155 0 -228.5 147t-23.5 421zM256.5 268 q27.5 -84 120.5 -84q119 0 264 152l119 553q-74 39 -174 39q-50 0 -92.5 -16t-86 -55.5t-79.5 -117t-60 -188.5q-39 -199 -11.5 -283zM530 1212l269 324h227l-305 -324h-191z" />
<glyph unicode="&#xe2;" horiz-adv-x="1130" d="M33 541q28 153 88.5 267.5t139.5 179t164.5 95.5t176.5 31q120 0 214.5 -24t195.5 -72l-164 -754q-9 -37 3 -55.5t40 -18.5q40 0 119 52l-27 -209q-84 -60 -190 -60q-71 0 -119.5 40t-42.5 116q-170 -156 -346 -156q-155 0 -228.5 147t-23.5 421zM256.5 268 q27.5 -84 120.5 -84q119 0 264 152l119 553q-74 39 -174 39q-50 0 -92.5 -16t-86 -55.5t-79.5 -117t-60 -188.5q-39 -199 -11.5 -283zM324 1212l262 324h200l127 -324h-170l-79 187l-156 -187h-184z" />
<glyph unicode="&#xe3;" horiz-adv-x="1130" d="M33 541q28 153 88.5 267.5t139.5 179t164.5 95.5t176.5 31q120 0 214.5 -24t195.5 -72l-164 -754q-9 -37 3 -55.5t40 -18.5q40 0 119 52l-27 -209q-84 -60 -190 -60q-71 0 -119.5 40t-42.5 116q-170 -156 -346 -156q-155 0 -228.5 147t-23.5 421zM256.5 268 q27.5 -84 120.5 -84q119 0 264 152l119 553q-74 39 -174 39q-50 0 -92.5 -16t-86 -55.5t-79.5 -117t-60 -188.5q-39 -199 -11.5 -283zM336 1311q81 176 221 176q49 0 117 -33t94 -33q63 0 98 78l121 -63q-87 -176 -239 -176q-38 0 -106 33.5t-93 33.5q-31 0 -51.5 -19.5 t-40.5 -58.5z" />
<glyph unicode="&#xe4;" horiz-adv-x="1130" d="M33 541q28 153 88.5 267.5t139.5 179t164.5 95.5t176.5 31q120 0 214.5 -24t195.5 -72l-164 -754q-9 -37 3 -55.5t40 -18.5q40 0 119 52l-27 -209q-84 -60 -190 -60q-71 0 -119.5 40t-42.5 116q-170 -156 -346 -156q-155 0 -228.5 147t-23.5 421zM256.5 268 q27.5 -84 120.5 -84q119 0 264 152l119 553q-74 39 -174 39q-50 0 -92.5 -16t-86 -55.5t-79.5 -117t-60 -188.5q-39 -199 -11.5 -283zM387 1270l43 211h182l-43 -211h-182zM713 1270l43 211h182l-43 -211h-182z" />
<glyph unicode="&#xe5;" horiz-adv-x="1130" d="M33 541q28 153 88.5 267.5t139.5 179t164.5 95.5t176.5 31q120 0 214.5 -24t195.5 -72l-164 -754q-9 -37 3 -55.5t40 -18.5q40 0 119 52l-27 -209q-84 -60 -190 -60q-71 0 -119.5 40t-42.5 116q-170 -156 -346 -156q-155 0 -228.5 147t-23.5 421zM256.5 268 q27.5 -84 120.5 -84q119 0 264 152l119 553q-74 39 -174 39q-50 0 -92.5 -16t-86 -55.5t-79.5 -117t-60 -188.5q-39 -199 -11.5 -283zM461 1374q15 78 82.5 130t156.5 52t135 -51.5t31 -130.5q-17 -79 -84.5 -130.5t-156.5 -51.5t-135 52t-29 130zM590 1374q-8 -35 7 -54.5 t50 -19.5q74 0 90 74q13 74 -59 74q-35 0 -58.5 -19.5t-29.5 -54.5z" />
<glyph unicode="&#xe6;" horiz-adv-x="1622" d="M33 541q28 153 88.5 267.5t139.5 179t164.5 95.5t176.5 31q179 0 334 -63q114 63 262 63q99 0 169.5 -34.5t105 -95t44 -144.5t-13.5 -183l-37 -174h-614q-31 -177 13 -249t159 -72q72 0 167.5 27.5t184.5 78.5l8 -190q-182 -105 -401 -105q-233 0 -317 156 q-172 -156 -381 -156q-155 0 -228.5 147t-23.5 421zM256.5 268q27.5 -84 120.5 -84q108 0 241 129q-6 102 17 230q36 202 123 338l2 8q-74 39 -174 39q-50 0 -92.5 -16t-86 -55.5t-79.5 -117t-60 -188.5q-39 -199 -11.5 -283zM893 657h385q30 138 0.5 204.5t-125.5 66.5 q-98 0 -159.5 -65.5t-100.5 -205.5z" />
<glyph unicode="&#xe7;" horiz-adv-x="964" d="M12 -270l117 112q33 -61 92 -61q98 0 98 110q0 37 -14 84q-172 18 -244.5 160.5t-23.5 409.5q54 283 195 426t364 143q95 0 161 -29t97 -79.5t41.5 -118.5t-4.5 -146q-152 -13 -213 -20q6 55 0.5 101t-39.5 76t-92 30q-103 0 -168.5 -87.5t-110.5 -297.5 q-80 -379 148 -379q72 0 157 27t164 79l8 -196q-122 -72 -262 -92q19 -62 19 -115q0 -115 -71 -186.5t-202 -71.5q-73 0 -134 34t-83 87z" />
<glyph unicode="&#xe8;" horiz-adv-x="1021" d="M21 282q-11 108 14 261q52 292 198.5 431.5t364.5 139.5q99 0 169.5 -34.5t105 -95t44 -144.5t-13.5 -183l-37 -174h-614q-31 -177 13 -249t159 -72q72 0 167.5 27.5t184.5 78.5l8 -190q-182 -105 -401 -105q-104 0 -178.5 31.5t-123.5 100.5t-60 177zM293 657h385 q30 138 0.5 204.5t-125.5 66.5q-98 0 -159.5 -65.5t-100.5 -205.5zM360 1536h224l133 -324h-182z" />
<glyph unicode="&#xe9;" horiz-adv-x="1021" d="M21 282q-11 108 14 261q52 292 198.5 431.5t364.5 139.5q99 0 169.5 -34.5t105 -95t44 -144.5t-13.5 -183l-37 -174h-614q-31 -177 13 -249t159 -72q72 0 167.5 27.5t184.5 78.5l8 -190q-182 -105 -401 -105q-104 0 -178.5 31.5t-123.5 100.5t-60 177zM293 657h385 q30 138 0.5 204.5t-125.5 66.5q-98 0 -159.5 -65.5t-100.5 -205.5zM512 1212l268 324h228l-306 -324h-190z" />
<glyph unicode="&#xea;" horiz-adv-x="1021" d="M21 282q-11 108 14 261q52 292 198.5 431.5t364.5 139.5q99 0 169.5 -34.5t105 -95t44 -144.5t-13.5 -183l-37 -174h-614q-31 -177 13 -249t159 -72q72 0 167.5 27.5t184.5 78.5l8 -190q-182 -105 -401 -105q-104 0 -178.5 31.5t-123.5 100.5t-60 177zM293 657h385 q30 138 0.5 204.5t-125.5 66.5q-98 0 -159.5 -65.5t-100.5 -205.5zM324 1212l262 324h200l127 -324h-170l-79 187l-156 -187h-184z" />
<glyph unicode="&#xeb;" horiz-adv-x="1021" d="M21 282q-11 108 14 261q52 292 198.5 431.5t364.5 139.5q99 0 169.5 -34.5t105 -95t44 -144.5t-13.5 -183l-37 -174h-614q-31 -177 13 -249t159 -72q72 0 167.5 27.5t184.5 78.5l8 -190q-182 -105 -401 -105q-104 0 -178.5 31.5t-123.5 100.5t-60 177zM293 657h385 q30 138 0.5 204.5t-125.5 66.5q-98 0 -159.5 -65.5t-100.5 -205.5zM389 1270l43 211h182l-43 -211h-182zM715 1270l43 211h182l-43 -211h-182z" />
<glyph unicode="&#xec;" horiz-adv-x="542" d="M-8 0l231 1087h223l-231 -1087h-223zM96 1536h223l134 -324h-183z" />
<glyph unicode="&#xed;" horiz-adv-x="542" d="M-8 0l231 1087h223l-231 -1087h-223zM260 1212l268 324h228l-305 -324h-191z" />
<glyph unicode="&#xee;" horiz-adv-x="542" d="M-8 0l231 1087h223l-231 -1087h-223zM61 1212l263 324h200l127 -324h-170l-80 187l-155 -187h-185z" />
<glyph unicode="&#xef;" horiz-adv-x="542" d="M-8 0l231 1087h223l-231 -1087h-223zM121 1270l43 211h182l-43 -211h-182zM446 1270l43 211h183l-43 -211h-183z" />
<glyph unicode="&#xf0;" horiz-adv-x="1071" d="M35 543q51 292 198.5 431.5t374.5 139.5q65 0 127 -16q-17 76 -49 149l-342 -49l29 141l258 37q-34 62 -80 119l211 41q55 -69 84 -131l246 37l-31 -139l-164 -25q36 -96 53.5 -184t18 -182t-6.5 -170.5t-24 -196.5q-51 -292 -198.5 -432t-374.5 -140q-428 0 -330 570z M264 543q-87 -383 142 -383q76 0 129.5 33.5t96.5 118.5t77 233q87 383 -142 383q-76 0 -129.5 -33.5t-96.5 -118.5t-77 -233z" />
<glyph unicode="&#xf1;" horiz-adv-x="1155" d="M-8 0l231 1087h201l-23 -98q196 125 377 125q150 0 208.5 -96.5t27.5 -249.5l-164 -768h-223l161 764q31 147 -102 147q-49 0 -110 -19.5t-98.5 -38.5t-92.5 -50l-170 -803h-223zM385 1311q81 176 221 176q49 0 117 -33t94 -33q63 0 98 78l121 -63q-87 -176 -239 -176 q-38 0 -106 33.5t-93 33.5q-31 0 -51.5 -19.5t-40.5 -58.5z" />
<glyph unicode="&#xf2;" horiz-adv-x="1071" d="M35 543q51 292 198.5 431.5t374.5 139.5q428 0 330 -569q-51 -292 -198.5 -432t-374.5 -140q-428 0 -330 570zM264 543q-87 -383 142 -383q76 0 129.5 33.5t96.5 118.5t77 233q87 383 -142 383q-76 0 -129.5 -33.5t-96.5 -118.5t-77 -233zM367 1536h223l133 -324h-182z " />
<glyph unicode="&#xf3;" horiz-adv-x="1071" d="M35 543q51 292 198.5 431.5t374.5 139.5q428 0 330 -569q-51 -292 -198.5 -432t-374.5 -140q-428 0 -330 570zM264 543q-87 -383 142 -383q76 0 129.5 33.5t96.5 118.5t77 233q87 383 -142 383q-76 0 -129.5 -33.5t-96.5 -118.5t-77 -233zM522 1212l269 324h227 l-305 -324h-191z" />
<glyph unicode="&#xf4;" horiz-adv-x="1071" d="M35 543q51 292 198.5 431.5t374.5 139.5q428 0 330 -569q-51 -292 -198.5 -432t-374.5 -140q-428 0 -330 570zM264 543q-87 -383 142 -383q76 0 129.5 33.5t96.5 118.5t77 233q87 383 -142 383q-76 0 -129.5 -33.5t-96.5 -118.5t-77 -233zM334 1212l262 324h201l127 -324 h-170l-80 187l-156 -187h-184z" />
<glyph unicode="&#xf5;" horiz-adv-x="1071" d="M35 543q51 292 198.5 431.5t374.5 139.5q428 0 330 -569q-51 -292 -198.5 -432t-374.5 -140q-428 0 -330 570zM264 543q-87 -383 142 -383q76 0 129.5 33.5t96.5 118.5t77 233q87 383 -142 383q-76 0 -129.5 -33.5t-96.5 -118.5t-77 -233zM338 1311q81 176 221 176 q49 0 117 -33t94 -33q63 0 98 78l121 -63q-87 -176 -239 -176q-38 0 -106 33.5t-93 33.5q-31 0 -51.5 -19.5t-40.5 -58.5z" />
<glyph unicode="&#xf6;" horiz-adv-x="1071" d="M35 543q51 292 198.5 431.5t374.5 139.5q428 0 330 -569q-51 -292 -198.5 -432t-374.5 -140q-428 0 -330 570zM264 543q-87 -383 142 -383q76 0 129.5 33.5t96.5 118.5t77 233q87 383 -142 383q-76 0 -129.5 -33.5t-96.5 -118.5t-77 -233zM387 1270l43 211h182l-43 -211 h-182zM713 1270l43 211h182l-43 -211h-182z" />
<glyph unicode="&#xf7;" d="M104 584l41 194h836l-41 -194h-836zM338 227l45 213h219l-45 -213h-219zM483 918l45 212h220l-46 -212h-219z" />
<glyph unicode="&#xf8;" horiz-adv-x="1071" d="M-100 0l149 158q-57 138 -14 385q51 292 198.5 431.5t374.5 139.5q171 0 260 -96l123 131l82 -62l-149 -157q57 -138 14 -385q-51 -292 -198.5 -432t-374.5 -140q-177 0 -263 99l-129 -135zM240 358l469 494q-40 76 -142 76q-76 0 -129.5 -33.5t-96.5 -118.5t-77 -233 q-24 -111 -24 -185zM260 238q40 -78 146 -78q76 0 129.5 33.5t96.5 118.5t77 233q24 111 24 186z" />
<glyph unicode="&#xf9;" horiz-adv-x="1130" d="M51 350l156 737h223l-162 -763q-14 -70 8.5 -104t71.5 -34q67 0 155 47.5t138 108.5l158 745h223l-170 -823q-15 -74 43 -74q40 0 119 52l-33 -209q-84 -60 -190 -60q-71 0 -117.5 39.5t-40.5 116.5q-85 -73 -180.5 -114.5t-180.5 -41.5q-130 0 -195 95.5t-26 281.5z M373 1536h223l133 -324h-182z" />
<glyph unicode="&#xfa;" horiz-adv-x="1130" d="M51 350l156 737h223l-162 -763q-14 -70 8.5 -104t71.5 -34q67 0 155 47.5t138 108.5l158 745h223l-170 -823q-15 -74 43 -74q40 0 119 52l-33 -209q-84 -60 -190 -60q-71 0 -117.5 39.5t-40.5 116.5q-85 -73 -180.5 -114.5t-180.5 -41.5q-130 0 -195 95.5t-26 281.5z M528 1212l269 324h227l-305 -324h-191z" />
<glyph unicode="&#xfb;" horiz-adv-x="1130" d="M51 350l156 737h223l-162 -763q-14 -70 8.5 -104t71.5 -34q67 0 155 47.5t138 108.5l158 745h223l-170 -823q-15 -74 43 -74q40 0 119 52l-33 -209q-84 -60 -190 -60q-71 0 -117.5 39.5t-40.5 116.5q-85 -73 -180.5 -114.5t-180.5 -41.5q-130 0 -195 95.5t-26 281.5z M336 1212l262 324h201l127 -324h-170l-80 187l-156 -187h-184z" />
<glyph unicode="&#xfc;" horiz-adv-x="1130" d="M51 350l156 737h223l-162 -763q-14 -70 8.5 -104t71.5 -34q67 0 155 47.5t138 108.5l158 745h223l-170 -823q-15 -74 43 -74q40 0 119 52l-33 -209q-84 -60 -190 -60q-71 0 -117.5 39.5t-40.5 116.5q-85 -73 -180.5 -114.5t-180.5 -41.5q-130 0 -195 95.5t-26 281.5z M401 1270l43 211h183l-43 -211h-183zM727 1270l43 211h182l-43 -211h-182z" />
<glyph unicode="&#xfd;" horiz-adv-x="1118" d="M-119 -342l88 176q144 -106 334 -106q92 0 158 41.5t86 134.5l41 182q-148 -113 -307 -113q-149 0 -207.5 101.5t-22.5 275.5l156 737h223l-162 -763q-14 -70 8.5 -104t71.5 -34q67 0 155 47.5t138 108.5l158 745h223l-250 -1185q-78 -373 -487 -373q-231 0 -404 129z M535 1212l268 324h227l-305 -324h-190z" />
<glyph unicode="&#xfe;" horiz-adv-x="1128" d="M-106 -471l417 1966l234 41l-113 -526q159 104 320 104q54 0 97.5 -15.5t82 -54t57.5 -102t24 -159.5t-18 -228q-25 -154 -80.5 -269t-133 -182t-166 -99t-189.5 -32q-110 0 -205 50l-94 -445zM264 219q79 -59 180 -59q51 0 96 20t87.5 63.5t77 122.5t55.5 189 q21 105 22.5 177t-15 110.5t-43.5 54.5t-69 16q-113 0 -268 -114z" />
<glyph unicode="&#xff;" horiz-adv-x="1118" d="M-119 -342l88 176q144 -106 334 -106q92 0 158 41.5t86 134.5l41 182q-148 -113 -307 -113q-149 0 -207.5 101.5t-22.5 275.5l156 737h223l-162 -763q-14 -70 8.5 -104t71.5 -34q67 0 155 47.5t138 108.5l158 745h223l-250 -1185q-78 -373 -487 -373q-231 0 -404 129z M399 1270l43 211h183l-43 -211h-183zM725 1270l43 211h182l-43 -211h-182z" />
<glyph unicode="&#x152;" horiz-adv-x="1880" d="M60 379q-9 140 28 334q43 200 115 346.5t166 233t200 127t228 40.5q117 0 199.5 -46t113.5 -136l33 156h758l-43 -205h-553l-86 -400h528l-41 -198h-528l-93 -426h582l-43 -205h-786l32 158q-69 -91 -173.5 -138t-223.5 -47t-206.5 43t-142.5 133t-64 230zM283.5 502.5 q-4.5 -92.5 10 -153t47 -99.5t76.5 -55.5t103 -16.5q74 0 136 27t118.5 87.5t102 167.5t77.5 259q25 120 29.5 212t-10 153t-46.5 99.5t-76 55t-103 16.5t-110 -16t-100 -55t-89 -100t-75 -154t-61 -215q-25 -120 -29.5 -212.5z" />
<glyph unicode="&#x153;" horiz-adv-x="1662" d="M35 543q51 292 198.5 431.5t374.5 139.5q226 0 297 -170q123 170 357 170q203 0 272.5 -120.5t24.5 -334.5l-39 -176h-600q-31 -178 21 -250.5t175 -72.5q139 0 309 106l-4 -172q-104 -59 -191 -90t-198 -31q-226 0 -287 158q-139 -158 -380 -158q-428 0 -330 570z M264 543q-87 -383 142 -383q76 0 129.5 33.5t96.5 118.5t77 233q87 383 -142 383q-76 0 -129.5 -33.5t-96.5 -118.5t-77 -233zM958 657h383q30 138 0 204.5t-127 66.5q-98 0 -158 -63t-98 -208z" />
<glyph unicode="&#x178;" horiz-adv-x="1077" d="M143 1434h238l172 -633l436 633h240l-619 -877l-118 -557h-224l119 557zM451 1608l43 211h182l-43 -211h-182zM776 1608l43 211h182l-43 -211h-182z" />
<glyph unicode="&#x2c6;" horiz-adv-x="1024" d="M182 1212l262 324h201l127 -324h-170l-80 187l-155 -187h-185z" />
<glyph unicode="&#x2dc;" horiz-adv-x="1024" d="M190 1311q81 176 222 176q49 0 117 -33t94 -33q63 0 98 78l121 -63q-87 -176 -240 -176q-38 0 -106 33.5t-93 33.5q-31 0 -51.5 -19.5t-40.5 -58.5z" />
<glyph unicode="&#x2000;" horiz-adv-x="943" />
<glyph unicode="&#x2001;" horiz-adv-x="1886" />
<glyph unicode="&#x2002;" horiz-adv-x="943" />
<glyph unicode="&#x2003;" horiz-adv-x="1886" />
<glyph unicode="&#x2004;" horiz-adv-x="628" />
<glyph unicode="&#x2005;" horiz-adv-x="471" />
<glyph unicode="&#x2006;" horiz-adv-x="314" />
<glyph unicode="&#x2007;" horiz-adv-x="314" />
<glyph unicode="&#x2008;" horiz-adv-x="235" />
<glyph unicode="&#x2009;" horiz-adv-x="377" />
<glyph unicode="&#x200a;" horiz-adv-x="104" />
<glyph unicode="&#x2010;" horiz-adv-x="854" d="M127 584l43 194h539l-43 -194h-539z" />
<glyph unicode="&#x2011;" horiz-adv-x="854" d="M127 584l43 194h539l-43 -194h-539z" />
<glyph unicode="&#x2012;" horiz-adv-x="854" d="M127 584l43 194h539l-43 -194h-539z" />
<glyph unicode="&#x2013;" horiz-adv-x="1140" d="M127 584l43 194h825l-43 -194h-825z" />
<glyph unicode="&#x2014;" horiz-adv-x="1916" d="M127 584l43 194h1602l-43 -194h-1602z" />
<glyph unicode="&#x2018;" horiz-adv-x="481" d="M119 948l252 486h178l-209 -486h-221z" />
<glyph unicode="&#x2019;" horiz-adv-x="481" d="M117 948l209 486h221l-252 -486h-178z" />
<glyph unicode="&#x201a;" horiz-adv-x="483" d="M-150 -350l209 485h222l-252 -485h-179z" />
<glyph unicode="&#x201c;" horiz-adv-x="876" d="M82 948l309 486h180l-264 -486h-225zM498 948l252 486h178l-205 -486h-225z" />
<glyph unicode="&#x201d;" horiz-adv-x="876" d="M127 948l205 486h227l-252 -486h-180zM485 948l263 486h225l-309 -486h-179z" />
<glyph unicode="&#x201e;" horiz-adv-x="876" d="M-170 -348l205 485h227l-252 -485h-180zM188 -348l263 485h225l-309 -485h-179z" />
<glyph unicode="&#x2022;" horiz-adv-x="784" d="M125 680q23 108 113.5 183t197.5 75q106 0 166 -75.5t37 -182.5q-22 -105 -113.5 -179.5t-197.5 -74.5q-107 0 -166 74t-37 180z" />
<glyph unicode="&#x2026;" horiz-adv-x="1503" d="M-31 0l51 238h236l-51 -238h-236zM481 0l51 238h236l-51 -238h-236zM991 0l51 238h236l-51 -238h-236z" />
<glyph unicode="&#x202f;" horiz-adv-x="377" />
<glyph unicode="&#x2039;" horiz-adv-x="751" d="M68 623l479 464h215l-447 -464l267 -486h-187z" />
<glyph unicode="&#x203a;" horiz-adv-x="751" d="M-10 137l446 465l-266 485h186l328 -485l-479 -465h-215z" />
<glyph unicode="&#x205f;" horiz-adv-x="471" />
<glyph unicode="&#x20ac;" d="M-27 479l29 139h127q1 8 7 44.5t11 58.5l11 53h-127l30 139h134q86 285 236 416t386 131q61 0 112.5 -13t88 -36t63.5 -54t42.5 -66.5t23 -74.5t7 -77t-8.5 -74l-211 -37q16 112 -20.5 169.5t-143.5 57.5q-135 0 -213 -79t-133 -263h489l-55 -139h-469l-12 -53l-21 -103 h443q-36 -94 -54 -139h-403q-7 -165 55.5 -233t202.5 -68q172 0 363 109l-5 -211q-197 -103 -428 -103q-148 0 -245.5 67.5t-137 179.5t-30.5 259h-144z" />
<glyph unicode="&#x2122;" horiz-adv-x="1695" d="M158 1286l30 148h594l-30 -148h-215l-123 -579h-168l123 579h-211zM670 707l245 727h193l74 -453l266 453h194l-59 -727h-170l43 464l-231 -407h-168l-60 407l-153 -464h-174z" />
<glyph unicode="&#x25fc;" d="M0 0v1085h1085v-1085h-1085z" />
<glyph unicode="&#xfb03;" horiz-adv-x="1830" d="M-334 -416l72 178q74 -34 123 -34q100 0 125 112l225 1067h-152l39 180h152l16 74q40 190 164.5 282.5t304.5 92.5q115 0 199 -35l-78 -180q-66 27 -147 27q-83 0 -141 -44t-79 -137l-16 -80h410l16 74q40 190 164.5 282.5t304.5 92.5q115 0 199 -35l-78 -180 q-66 27 -148 27t-140 -44t-79 -137l-16 -80h629l-232 -1087h-223l193 907h-406l-236 -1110q-28 -129 -120 -198.5t-211 -69.5q-115 0 -203 55l72 178q74 -34 123 -34q101 0 126 112l226 1067h-410l-235 -1110q-28 -129 -120.5 -198.5t-209.5 -69.5q-115 0 -203 55z M1542 1233l51 242h224l-52 -242h-223z" />
<glyph unicode="&#xfb04;" horiz-adv-x="1894" d="M-336 -416l72 178q74 -34 123 -34q100 0 125 112l227 1067h-152l39 180h152l16 74q40 190 164.5 282.5t304.5 92.5q115 0 199 -35l-78 -180q-66 27 -147 27q-83 0 -141 -44t-79 -137l-16 -80h410l16 74q40 190 164.5 282.5t304.5 92.5q115 0 199 -35l-78 -180 q-66 27 -148 27t-140 -44t-79 -137l-16 -80h268l-65 -180h-242l-238 -1110q-28 -129 -120 -198.5t-211 -69.5q-115 0 -203 55l72 178q74 -34 122 -34q102 0 127 112l228 1067h-410l-237 -1110q-28 -129 -120.5 -198.5t-209.5 -69.5q-115 0 -203 55zM1335 242l264 1253 l234 41l-272 -1286q-8 -41 7.5 -56.5t51.5 -15.5q56 0 141 45l-24 -198q-91 -52 -207 -52q-114 0 -168.5 68.5t-26.5 200.5z" />
</font>
</defs>
</svg>
