<?xml version="1.0" standalone="no"?>
<!DOCTYPE svg PUBLIC "-//W3C//DTD SVG 1.1//EN" "http://www.w3.org/Graphics/SVG/1.1/DTD/svg11.dtd" >
<svg xmlns="http://www.w3.org/2000/svg">
<metadata></metadata>
<defs>
<font id="bnpp_sansbold_italic" horiz-adv-x="1085" >
<font-face units-per-em="2048" ascent="1546" descent="-502" />
<missing-glyph horiz-adv-x="524" />
<glyph unicode="&#xfb01;" horiz-adv-x="1228" d="M-313 -416l86 258q61 -26 106 -26q90 0 109 100l196 926h-135l55 254h136l14 71q23 107 73.5 187.5t121.5 129t155 72t180 23.5q71 0 125 -10l-80 -266q-33 10 -67 10q-147 0 -174 -133l-19 -84h615l-234 -1096h-329l178 842h-285l-207 -973q-35 -171 -140.5 -255.5 t-252.5 -84.5q-123 0 -227 55zM881 1227l61 289h330l-62 -289h-329z" />
<glyph unicode="&#xfb02;" horiz-adv-x="1269" d="M-315 -418l84 258q65 -26 108 -26q87 0 109 100l198 928h-135l55 254h136l14 71q23 107 73.5 187.5t121.5 129t155 72t180 23.5q71 0 125 -10l-80 -266q-33 10 -67 10q-145 0 -176 -133l-17 -84h203l-76 -254h-182l-205 -959q-26 -126 -90 -207.5t-144.5 -114 t-183.5 -32.5q-117 0 -206 53zM677 237q4 57 19 128l236 1130l340 41l-252 -1184q-9 -42 9 -62t54 -20q46 0 107 25l-49 -266q-113 -58 -250 -58q-64 0 -108.5 19.5t-68.5 54t-32.5 85t-4.5 107.5z" />
<glyph horiz-adv-x="0" />
<glyph horiz-adv-x="682" />
<glyph unicode=" "  horiz-adv-x="524" />
<glyph unicode="&#x09;" horiz-adv-x="524" />
<glyph unicode="&#xa0;" horiz-adv-x="524" />
<glyph unicode="!" horiz-adv-x="634" d="M-2 0l68 328h333l-69 -328h-332zM109 457l180 977h358l-233 -977h-305z" />
<glyph unicode="&#x22;" horiz-adv-x="940" d="M152 948l104 486h285l-105 -486h-284zM598 948l104 486h285l-104 -486h-285z" />
<glyph unicode="#" horiz-adv-x="1288" d="M-80 342l94 250h197l96 246h-196l98 252h197l133 346h270l-133 -346h223l133 346h271l-134 -346h197l-98 -252h-197l-96 -246h194l-96 -250h-196l-132 -342h-270l131 342h-223l-131 -342h-268l129 342h-193zM481 592h224l96 246h-223z" />
<glyph unicode="$" d="M-33 213l139 270q55 -76 148.5 -125t181.5 -49q55 0 95.5 24.5t50.5 72.5q7 31 -18 56t-69.5 44.5t-99 41.5t-107.5 54t-94 73.5t-59.5 109.5t-3.5 153q28 163 144 264.5t286 128.5l43 205h246l-47 -211q72 -12 124 -42t79 -70.5t43 -90t14.5 -100t-6.5 -100.5l-318 -37 q17 80 -8 129t-104 49q-53 0 -95 -27.5t-53 -83.5q-8 -37 15.5 -66.5t67.5 -51.5t99 -44t110 -52t100.5 -67.5t71 -98t20.5 -136.5q-5 -83 -42 -152t-97.5 -116t-134 -78t-159.5 -45l-47 -225h-245l47 219q-97 15 -181.5 61t-136.5 113z" />
<glyph unicode="%" horiz-adv-x="1626" d="M78 0l1216 1434h252l-1218 -1434h-250zM113 1087q65 375 403 375q141 0 208 -97t36 -282q-64 -374 -404 -374q-141 0 -207.5 96.5t-35.5 281.5zM348 1085q-37 -170 53 -170q87 0 123 170q37 170 -49 170q-91 0 -127 -170zM858 348q32 187 134 281t270 94q141 0 207.5 -97 t35.5 -282q-65 -375 -403 -375q-141 0 -208 97t-36 282zM1094 346q-37 -170 53 -170q87 0 123 170q37 170 -49 170q-91 0 -127 -170z" />
<glyph unicode="&#x26;" horiz-adv-x="1245" d="M-53 336q0 288 336 436q-86 134 -86 268q0 184 133 303t370 119q190 0 292 -92t102 -225q0 -144 -96.5 -248t-266.5 -186q4 -6 51 -67.5t70 -94.5q32 53 51 145h266q-22 -107 -64.5 -208t-92.5 -160q49 -62 140.5 -173t125.5 -153h-397l-93 106q-167 -135 -405 -135 q-213 0 -324.5 101.5t-111.5 263.5zM291 371q0 -61 45.5 -94t114.5 -33q93 0 172 67l-191 258q-141 -77 -141 -198zM532 1059q0 -85 48 -156q102 45 147 96.5t45 118.5q0 38 -26 62t-72 24q-72 0 -107 -40.5t-35 -104.5z" />
<glyph unicode="'" horiz-adv-x="493" d="M145 948l105 486h285l-105 -486h-285z" />
<glyph unicode="(" horiz-adv-x="702" d="M31 316.5q2 136.5 30 269.5q116 555 551 950h330q-96 -82 -182 -177t-168 -213t-144 -261.5t-94 -296.5q-26 -122 -30 -251t10 -241t42.5 -223t61.5 -198.5t72 -166.5h-277q-39 70 -73 149.5t-66 189t-48.5 221.5t-14.5 248.5z" />
<glyph unicode=")" horiz-adv-x="702" d="M-272 -492q96 82 181.5 177t167.5 213.5t144 262t94 296.5q26 122 30 250.5t-10 240.5t-42 223t-61 198.5t-72 166.5h276q39 -70 73 -149t66 -188.5t48.5 -221.5t14.5 -248.5t-30 -269.5q-116 -556 -551 -951h-329z" />
<glyph unicode="*" horiz-adv-x="919" d="M90 938l238 117l-187 119l140 174l186 -138l41 224h201l-54 -224l244 136l66 -172l-242 -121l192 -113l-139 -178l-186 141l-43 -223h-201l57 223l-247 -139z" />
<glyph unicode="+" d="M74 543l59 276h299l66 307h276l-65 -307h301l-60 -276h-301l-65 -307h-277l66 307h-299z" />
<glyph unicode="," horiz-adv-x="493" d="M-231 -270l268 598h352l-352 -598h-268z" />
<glyph unicode="-" horiz-adv-x="829" d="M82 543l59 276h588l-59 -276h-588z" />
<glyph unicode="." horiz-adv-x="493" d="M-68 0l72 328h334l-72 -328h-334z" />
<glyph unicode="/" horiz-adv-x="815" d="M-145 0l823 1434h283l-828 -1434h-278z" />
<glyph unicode="0" d="M0 369.5q-5 141.5 27 343.5q66 387 236.5 568t441.5 181q97 0 167.5 -25t119.5 -80t71.5 -142t20.5 -210.5t-31 -285.5q-36 -203 -96 -346.5t-146 -232t-193 -129t-243 -40.5q-115 0 -194 40t-127.5 128.5t-53.5 230zM335 456.5q-2 -98.5 24.5 -142.5t84.5 -44 q89 0 152 104t115 345q50 239 31.5 341.5t-107.5 102.5q-85 0 -150 -109t-114 -339q-34 -160 -36 -258.5z" />
<glyph unicode="1" d="M-31 0l64 307h309l160 752l-342 -156l69 330l443 201h235l-239 -1127h290l-65 -307h-924z" />
<glyph unicode="2" d="M-57 0q26 117 57 272l578 529q153 141 153 241q0 119 -113 119q-145 0 -192 -194q-275 53 -311 61q22 92 66 168t111.5 137t168 95t223.5 34q196 0 297.5 -100.5t101.5 -269.5q0 -80 -21 -147.5t-69 -132.5t-100 -117.5t-141 -129.5l-291 -252h487q-10 -54 -33 -159.5 t-32 -153.5h-940z" />
<glyph unicode="3" d="M-41 143l129 277q52 -69 139.5 -109.5t180.5 -40.5q76 0 132.5 38.5t73.5 111.5q16 78 -24 112.5t-127 34.5h-174l61 287h166q71 0 124 45t67 113q14 69 -12.5 110t-100.5 41q-140 0 -195 -174l-303 80q21 80 65 148.5t113 124.5t169.5 88t222.5 32q134 0 232 -48 t143 -142t18 -219q-44 -206 -250 -301q100 -36 135.5 -125t9.5 -213q-46 -217 -202 -330t-390 -113q-144 0 -248 49.5t-155 122.5z" />
<glyph unicode="4" d="M-80 285l62 290l639 859h448l-184 -865h147l-59 -284h-148l-61 -285h-318l62 285h-588zM287 569h280l113 525z" />
<glyph unicode="5" d="M-20 143l124 277q54 -68 134 -109t170 -41q100 0 152 53t52 150q0 73 -52 107t-132 34q-82 0 -166 -32l-139 110q90 423 156 742h829q-10 -53 -33 -159t-33 -159h-516l-51 -237q20 2 62 2q198 0 311 -92.5t113 -266.5q0 -135 -45 -241.5t-124.5 -173t-183.5 -101.5 t-225 -35q-141 0 -247 50.5t-156 121.5z" />
<glyph unicode="6" d="M41 713q67 386 240.5 567.5t445.5 181.5q205 0 299 -109t68 -315l-316 -26q10 151 -116 151q-177 0 -242 -313q107 49 244 49q62 0 115.5 -14t101 -45t75.5 -80.5t40.5 -122t-5.5 -168.5q-20 -122 -77 -219t-137.5 -157t-177.5 -91t-202 -31q-233 0 -327.5 183.5 t-28.5 558.5zM340 410.5q1 -66.5 31.5 -103.5t93.5 -37q69 0 117 49t67 136q13 58 -1.5 95t-46 50t-75.5 12.5t-87 -12.5t-83 -31q-17 -92 -16 -158.5z" />
<glyph unicode="7" d="M-51 0l776 1126h-573l65 308h959l-54 -250l-792 -1184h-381z" />
<glyph unicode="8" d="M-37 412q18 85 45.5 144t82.5 110t138 79q-63 47 -90 122.5t-6 174.5q45 209 184.5 314.5t384.5 105.5q211 0 319.5 -118.5t70.5 -301.5q-45 -213 -224 -297q181 -87 129 -333q-44 -203 -204 -322t-408 -119q-228 0 -346 121.5t-76 319.5zM305 430q-18 -82 20 -126 t119 -44q84 0 141.5 44t76.5 126q36 172 -142 172q-179 0 -215 -172zM459 1010q-14 -71 14.5 -116.5t97.5 -45.5q70 0 119.5 46t63.5 116q17 83 -10.5 122t-102.5 39q-149 0 -182 -161z" />
<glyph unicode="9" d="M-49 143l127 277q41 -58 116.5 -98.5t149.5 -40.5q135 0 197.5 60.5t93.5 211.5q-72 -24 -149 -26.5t-150 19t-131 64t-93.5 116.5t-35.5 169q0 253 151 410t396 157q123 0 210 -32.5t138.5 -97t74.5 -151.5t23 -204q0 -94 -8.5 -185.5t-31 -193.5t-57 -190.5t-91 -170 t-129 -139.5t-174.5 -92.5t-224 -34.5q-146 0 -249.5 48.5t-153.5 123.5zM418 948q0 -71 50.5 -105t116.5 -29t120 38q4 26 6 38.5t6 45.5t3 52.5t-2 49.5t-9.5 48.5t-20 37.5t-32.5 28t-48 9q-83 0 -136.5 -58.5t-53.5 -154.5z" />
<glyph unicode=":" horiz-adv-x="493" d="M-72 0l68 328h334l-70 -328h-332zM88 770l70 328h334l-70 -328h-334z" />
<glyph unicode=";" horiz-adv-x="493" d="M-240 -270l267 598h352l-348 -598h-271zM88 770l70 328h334l-70 -328h-334z" />
<glyph unicode="&#x3c;" d="M68 500l73 350l928 246l-59 -285l-641 -141l579 -144l-59 -272z" />
<glyph unicode="=" d="M29 313l57 277h877l-58 -277h-876zM121 750l57 276h877l-58 -276h-876z" />
<glyph unicode="&#x3e;" d="M16 254l60 285l641 141l-580 143l60 273l821 -246l-74 -350z" />
<glyph unicode="?" horiz-adv-x="970" d="M86 1073q21 85 62 153.5t104 122.5t155 83.5t205 29.5q177 0 281 -87t104 -228q0 -72 -20.5 -133.5t-63 -115t-79.5 -88t-97 -83.5l-42.5 -34t-37.5 -30.5t-29.5 -25.5t-26.5 -27.5t-19.5 -27.5t-19 -34t-14 -40t-13.5 -51h-320q20 92 35.5 141.5t46 100.5t72.5 91.5 t118 100.5q8 6 39.5 29t46 36t36 34.5t31 43.5t9.5 45q0 36 -24.5 59t-71.5 23q-134 0 -168 -147zM121 0l69 328h334l-69 -328h-334z" />
<glyph unicode="@" horiz-adv-x="1581" d="M10.5 228.5q-32.5 142.5 5.5 332.5q46 219 174.5 386t315.5 257t405 90q330 0 494 -189t100 -495q-49 -230 -172.5 -358.5t-290.5 -128.5q-77 0 -130 28.5t-64 88.5q-124 -99 -242 -99q-40 0 -75.5 8.5t-69.5 27t-57.5 51.5t-38.5 78.5t-14 112.5t18 148q21 97 62 172.5 t89 120.5t106 73.5t108 39t100 10.5q182 0 331 -109l-92 -425q-10 -49 5 -71t57 -22q114 0 168 254q50 234 -70 370t-359 136q-241 0 -426 -148.5t-241 -406.5q-29 -143 -5 -251.5t94.5 -181t175 -109.5t235.5 -37q202 0 409 79l21 -172q-236 -90 -475 -90q-166 0 -300 48 t-226.5 143.5t-125 238zM617.5 445.5q7.5 -44.5 25 -61.5t45.5 -17q67 0 129 65l64 303q-38 23 -93 23q-23 0 -44 -8.5t-43.5 -28.5t-41 -59.5t-30.5 -94.5q-19 -77 -11.5 -121.5z" />
<glyph unicode="A" horiz-adv-x="1167" d="M-186 0l718 1434h406l109 -1434h-338l-15 264h-442l-129 -264h-309zM379 537h301l-33 559z" />
<glyph unicode="B" horiz-adv-x="1198" d="M-10 0l303 1434h455q106 0 189 -22t143 -66.5t83 -119.5q12 -39 12 -85q0 -42 -10 -90q-25 -117 -97.5 -199.5t-186.5 -122.5q116 -21 166 -109q31 -55 31 -130q0 -45 -11 -97q-44 -214 -195.5 -303.5t-420.5 -89.5h-461zM373 283h131q98 0 151 34.5t70 114.5q6 28 6 51 q0 47 -25 70q-37 35 -137 35h-131zM496 858h129q81 0 129.5 34.5t66.5 117.5q6 26 6 46q1 22 -5 38q-4 14 -15.5 25t-23 16.5t-30.5 8.5t-35.5 4t-41.5 1h-119z" />
<glyph unicode="C" horiz-adv-x="1165" d="M32 486q2 113 23 241q69 370 258 552.5t478 182.5q217 0 316 -134q71 -96 71 -234q0 -54 -11 -115l-319 -27q7 40 7 72q0 139 -132 139q-129 0 -208 -105.5t-124 -330.5q-23 -109 -25 -189q0 -12 -1 -24q0 -64 12 -108q14 -52 47.5 -82t78 -42t107.5 -12q155 0 375 115 l-24 -309q-215 -105 -461 -105q-122 0 -213.5 38t-145.5 106.5t-83 162.5q-27 87 -27 190q1 9 1 18z" />
<glyph unicode="D" horiz-adv-x="1316" d="M-10 0l303 1434h532q271 0 387 -170q75 -110 74 -296q0 -103 -22 -229q-35 -194 -104.5 -337.5t-167.5 -230.5t-217 -129t-263 -42h-522zM375 293h190q70 0 119.5 17t96.5 63.5t82.5 135t64.5 224.5q20 101 24 173q1 17 1 33q0 51 -8 85q-11 46 -40 72t-66.5 35.5 t-93.5 9.5h-190z" />
<glyph unicode="E" horiz-adv-x="1075" d="M-10 0l303 1434h825l-63 -293h-500l-59 -285h475l-60 -276h-475l-59 -287h528l-63 -293h-852z" />
<glyph unicode="F" horiz-adv-x="1052" d="M-10 0l303 1434h852l-64 -293h-526l-70 -332h441l-62 -287h-440l-111 -522h-323z" />
<glyph unicode="G" horiz-adv-x="1329" d="M31 477q0 206 44 374t118 280t174.5 188t211 109.5t230.5 33.5q99 0 177.5 -22t130 -59.5t85 -90t48 -110t14.5 -123.5q0 -33 -7 -80l-317 -27q4 36 4 49q0 83 -40 122.5t-126 39.5q-137 0 -241 -100.5t-152 -329.5q-29 -142 -29 -217q0 -139 53 -191.5t164 -52.5 q122 0 242 78l37 180h-223q27 132 57 267h551l-170 -795h-295l19 86q-140 -115 -334 -115q-93 0 -168 27.5t-134 85.5t-91.5 158t-32.5 235z" />
<glyph unicode="H" horiz-adv-x="1386" d="M-10 0l303 1434h325l-120 -566h454l121 566h324l-305 -1434h-324l119 557h-455l-119 -557h-323z" />
<glyph unicode="I" horiz-adv-x="608" d="M-10 0l303 1434h325l-305 -1434h-323z" />
<glyph unicode="J" horiz-adv-x="647" d="M-170 25l96 278q42 -33 103 -33q37 0 60 21t34 74l225 1069h326l-234 -1108q-40 -188 -139 -271.5t-258 -83.5q-125 0 -213 54z" />
<glyph unicode="K" horiz-adv-x="1226" d="M-10 0l303 1434h325l-131 -625l557 625h373l-549 -588l240 -846h-352l-164 575l-203 -229l-74 -346h-325z" />
<glyph unicode="L" horiz-adv-x="950" d="M-10 0l303 1434h325l-241 -1141h461l-64 -293h-784z" />
<glyph unicode="M" horiz-adv-x="1738" d="M-74 0l432 1434h365l102 -865l467 865h391l-176 -1434h-327l118 862l-405 -747h-307l-84 747l-250 -862h-326z" />
<glyph unicode="N" horiz-adv-x="1423" d="M-10 0l303 1434h332l305 -869l184 869h320l-306 -1434h-331l-312 850l-180 -850h-315z" />
<glyph unicode="O" horiz-adv-x="1275" d="M32 426q-1 21 -2 43q0 109 27 246q30 161 85.5 289t125.5 212.5t158 140.5t179.5 80.5t191.5 24.5q448 0 448 -481q0 -117 -26 -262q-30 -161 -85.5 -289t-126 -213t-158 -141t-179.5 -80.5t-193 -24.5q-99 0 -176.5 24.5t-139 78.5t-92.5 141t-37 211zM359 534 q-1 -20 -1 -38q0 -54 8 -90q12 -50 38 -80.5t60 -43t79 -12.5t84 12t78.5 43t72 80.5t62 128.5t51.5 183q22 105 26 183q1 20 1 38q0 54 -8 90q-12 50 -38 80.5t-60 42.5t-79 12t-84 -12t-78.5 -42.5t-72 -80t-62 -128.5t-51.5 -183.5t-26 -182.5z" />
<glyph unicode="P" horiz-adv-x="1161" d="M-10 0l303 1434h424q79 0 142 -10t117.5 -32.5t89.5 -59.5t59 -91q23 -54 25 -126v-15q0 -66 -11 -150q-81 -501 -611 -501q-71 0 -116 10l-99 -459h-323zM469 733q36 -8 82 -8q111 0 174 45.5t88 165.5q12 56 12 97q0 52 -20 78q-36 46 -148 46h-98z" />
<glyph unicode="Q" horiz-adv-x="1282" d="M31 436q-1 17 -1 35q0 108 27 244q30 161 85.5 289t125.5 212.5t158 140.5t179.5 80.5t191.5 24.5q448 0 448 -481q0 -117 -26 -262q-53 -281 -174.5 -452t-292.5 -242l137 -373h-365l-88 321q-92 5 -163 32.5t-126.5 83.5t-83 141.5t-32.5 205.5zM359 534q-1 -20 -1 -38 q0 -53 8 -90q12 -49 38 -80t60 -43.5t79 -12.5t84 12t78.5 43t72 80.5t62 128.5t51.5 183t26 183q1 20 1 38q0 53 -8 90q-12 49 -38 80t-60 43t-79 12t-84 -12t-78.5 -42.5t-72 -80t-62 -128.5t-51.5 -183t-26 -183z" />
<glyph unicode="R" horiz-adv-x="1191" d="M-10 0q182 868 303 1434h438q209 0 331 -88t122 -263q0 -105 -27.5 -195t-74.5 -152t-98.5 -104t-109.5 -69l152 -563h-352l-125 500q-81 0 -129 6l-109 -506h-321zM481 795q59 -9 107 -9q203 0 243 189q7 35 7 63q0 50 -24 74q-38 38 -146 37h-113z" />
<glyph unicode="S" horiz-adv-x="1097" d="M-41 152l135 247q64 -68 161.5 -107.5t190.5 -39.5q181 0 181 139q0 42 -27 77.5t-70.5 63.5t-96 56.5t-105 64t-96 77.5t-70.5 105t-27 140q0 218 147 352.5t392 134.5q192 0 302.5 -100t110.5 -272q0 -22 -4 -76l-297 -29q0 7 1 20.5t1 20.5q0 65 -35 106.5t-108 41.5 q-74 0 -121 -42t-47 -116q0 -45 27 -83.5t71 -67.5t96.5 -58t105 -63.5t96.5 -75.5t71 -103t27 -137q0 -110 -43.5 -198.5t-118 -144t-170 -85t-203.5 -29.5q-134 0 -259.5 46t-217.5 135z" />
<glyph unicode="T" horiz-adv-x="1116" d="M125 1141l63 293h1047l-64 -293h-360l-242 -1141h-325l241 1141h-360z" />
<glyph unicode="U" horiz-adv-x="1347" d="M84 502l197 932h325l-196 -924q-9 -44 -9 -81q0 -159 179 -159q111 0 177.5 59t92.5 181l194 924h326l-199 -932q-111 -531 -655 -531q-254 0 -369 145q-79 100 -79 245q0 66 16 141z" />
<glyph unicode="V" horiz-adv-x="1228" d="M156 1434h350l59 -1035l488 1035h311l-705 -1434h-380z" />
<glyph unicode="W" horiz-adv-x="1861" d="M145 0l17 1434h346l-39 -969l446 969h336l33 -969l375 969h346l-594 -1434h-397l-37 934l-434 -934h-398z" />
<glyph unicode="X" horiz-adv-x="1191" d="M-166 0l555 709l-244 725h375l144 -443l329 443h346l-555 -703l267 -731h-379l-152 444l-342 -444h-344z" />
<glyph unicode="Y" horiz-adv-x="1138" d="M129 1434h360l113 -576l361 576h350l-627 -932l-106 -502h-326l106 502z" />
<glyph unicode="Z" horiz-adv-x="1146" d="M-98 0l45 215l788 926h-571l63 293h1006l-47 -217l-789 -924h596l-63 -293h-1028z" />
<glyph unicode="[" horiz-adv-x="655" d="M-102 -471l426 2007h477l-53 -248h-189l-321 -1513h188l-53 -246h-475z" />
<glyph unicode="\" horiz-adv-x="815" d="M156 1434h282l215 -1434h-280z" />
<glyph unicode="]" horiz-adv-x="655" d="M-219 -471l53 248h189l321 1513h-188l53 246h475l-426 -2007h-477z" />
<glyph unicode="^" horiz-adv-x="1089" d="M35 719l536 715h248l230 -715h-281l-127 389l-289 -389h-317z" />
<glyph unicode="_" horiz-adv-x="1028" d="M-176 -305l57 276h1102l-57 -276h-1102z" />
<glyph unicode="`" horiz-adv-x="1024" d="M223 1536h299l109 -324h-228z" />
<glyph unicode="a" horiz-adv-x="1169" d="M23 543q14 91 42.5 173.5t77 158t112 130.5t152.5 88t193 33q220 0 481 -96l-153 -721q-6 -32 6 -48.5t37 -16.5q48 0 123 41l-35 -226q-49 -41 -119 -64.5t-141 -23.5q-81 0 -131 41q-44 36 -44 102q0 9 1 19q-187 -162 -355 -162q-152 0 -222 142q-43 86 -43 227 q0 90 18 203zM348 430q-2 -26 -3 -46q0 -23 3 -40q5 -32 19 -51.5t31.5 -26t41.5 -6.5q67 0 162 64l109 507q-45 25 -121 25q-88 0 -140.5 -77t-82.5 -222q-15 -73 -19 -127z" />
<glyph unicode="b" horiz-adv-x="1134" d="M0 135l287 1360l338 41l-103 -487q158 77 293 77q57 0 101.5 -17.5t79.5 -58.5q34 -40 52 -104q17 -60 17 -149v-10q-1 -96 -23 -220q-25 -137 -74 -242.5t-109.5 -171t-137.5 -107.5t-152 -58.5t-159 -16.5q-113 0 -222.5 48t-187.5 116zM358 281q52 -41 127 -41 q50 0 85.5 25t69.5 98.5t62 203.5q24 101 24 163q0 12 -1 22q-5 66 -29 88t-75 22q-50 0 -148 -37z" />
<glyph unicode="c" horiz-adv-x="987" d="M4 369q0 348 166 552.5t459 204.5q325 0 325 -280q0 -68 -14 -137l-297 -27q8 54 8 80q0 100 -82 100q-65 0 -117 -71.5t-78 -176.5t-26 -217q0 -84 37.5 -119.5t110.5 -35.5q123 0 331 104l-24 -268q-106 -53 -206.5 -80t-221.5 -27q-187 0 -279 104t-92 294z" />
<glyph unicode="d" horiz-adv-x="1175" d="M23 543q44 282 189 432.5t333 150.5q121 0 219 -53l88 422l338 41l-262 -1227q-6 -32 6 -48.5t37 -16.5q48 0 123 41l-35 -226q-49 -41 -119 -64.5t-141 -23.5q-81 0 -131 41q-44 36 -44 102q0 9 1 19q-187 -162 -355 -162q-152 0 -222 142q-43 86 -43 227q0 90 18 203z M348 430q-2 -26 -3 -46q0 -23 3 -40q5 -32 19 -51.5t31.5 -26t41.5 -6.5q67 0 162 64l105 493q-61 39 -117 39q-88 0 -140.5 -77t-82.5 -222q-15 -73 -19 -127z" />
<glyph unicode="e" horiz-adv-x="1021" d="M4 352q0 111 20.5 217.5t67.5 208.5t116.5 178.5t176 123t236.5 46.5q336 0 336 -313q0 -74 -19 -166l-41 -192h-549q-6 -36 -6 -66q0 -162 164 -162q72 0 159.5 30.5t161.5 72.5l-24 -260q-191 -99 -428 -99q-177 0 -274 95.5t-97 285.5zM391 657h242q15 66 15 109 q0 29 -6 48q-16 48 -85 48q-67 0 -103.5 -48t-62.5 -157z" />
<glyph unicode="f" horiz-adv-x="747" d="M-313 -418l84 258q61 -26 106 -26q49 0 75.5 27t41.5 96l190 905h-135l55 254h136q8 33 14 71q49 208 187.5 311t338.5 103q129 0 234 -41l-80 -262q-98 35 -170 35q-66 0 -114 -33t-62 -100l-19 -84h246l-76 -254h-225l-209 -977q-35 -165 -141.5 -250.5t-249.5 -85.5 q-135 0 -227 53z" />
<glyph unicode="g" horiz-adv-x="1124" d="M-106 -346l94 248q146 -117 348 -117q151 0 182 147l37 174q-153 -106 -274 -106q-74 0 -132 30t-99.5 96t-47.5 170q-1 18 -1 38q0 93 24 217q34 160 91.5 274t135.5 178.5t165.5 93.5t194.5 29q204 0 471 -98l-227 -1071q-42 -201 -191 -314.5t-366 -113.5 q-249 0 -405 125zM358 414q8 -60 33 -87.5t66 -27.5q66 0 153 66l101 466q-54 25 -115 25q-91 0 -143.5 -73.5t-81.5 -209.5q-15 -71 -15 -122q0 -20 2 -37z" />
<glyph unicode="h" horiz-adv-x="1171" d="M-25 0l316 1495l338 41l-107 -506q166 96 309 96q155 0 215 -110q36 -66 36 -160q0 -61 -15 -135l-152 -721h-331l145 678q6 29 6 52q0 89 -94 89q-65 0 -174 -49l-164 -770h-328z" />
<glyph unicode="i" horiz-adv-x="561" d="M-25 0l232 1096h330l-234 -1096h-328zM233 1227l62 289h330l-62 -289h-330z" />
<glyph unicode="j" horiz-adv-x="561" d="M-350 -422l86 260q62 -28 104 -28q94 0 115 102l252 1184h330l-269 -1256q-23 -107 -84 -180t-138.5 -104t-168.5 -31q-124 0 -227 53zM236 1227l61 289h330l-62 -289h-329z" />
<glyph unicode="k" horiz-adv-x="1060" d="M-25 0l316 1495l338 41l-178 -848l376 408h338l-399 -443l213 -653h-367l-127 424l-116 -111l-66 -313h-328z" />
<glyph unicode="l" horiz-adv-x="610" d="M32 237q4 57 19 128l236 1130l340 41l-252 -1184q-3 -14 -3 -26q0 -23 12 -36q18 -20 54 -20q46 0 107 25l-49 -266q-113 -58 -250 -58q-64 0 -108.5 19.5t-68.5 53.5q-25 36 -33 86q-6 34 -5 71q0 18 1 36z" />
<glyph unicode="m" horiz-adv-x="1751" d="M-23 0l230 1096h260l-25 -119q186 149 381 149q183 0 234 -125q182 125 360 125q126 0 188 -69.5t62 -194.5q0 -63 -16 -145l-158 -717h-330l150 698q4 20 4 37q1 31 -13 51q-22 32 -77 31q-70 0 -166 -49q-12 -70 -27 -141l-135 -627h-330l148 698q4 17 4 33 q0 31 -15 53q-22 34 -77 33q-70 0 -160 -49l-164 -768h-328z" />
<glyph unicode="n" horiz-adv-x="1171" d="M-25 0l232 1096h262l-27 -117q91 67 196 107t193 40q155 0 215 -110q36 -66 36 -160q0 -61 -15 -135l-154 -721h-329l145 678q6 29 6 52q0 89 -94 89q-65 0 -174 -49l-164 -770h-328z" />
<glyph unicode="o" horiz-adv-x="1112" d="M4 344q0 113 23.5 223t75 211.5t125 178.5t182 123t237.5 46q194 0 295.5 -94.5t101.5 -286.5q0 -113 -23.5 -222t-74.5 -209.5t-124.5 -176.5t-181.5 -121t-237 -45q-399 0 -399 373zM342 373q0 -78 28.5 -112t86.5 -34q66 0 117.5 54t78.5 135t40.5 159t13.5 142 q0 78 -28 111.5t-87 33.5q-66 0 -117.5 -54t-78.5 -135t-40.5 -158.5t-13.5 -141.5z" />
<glyph unicode="p" horiz-adv-x="1138" d="M-125 -471l332 1567h262l-27 -119q95 71 197 110t180 39q72 0 124 -29t87.5 -95.5t39.5 -174.5v-26q0 -101 -23 -240q-25 -137 -74 -242t-109.5 -169.5t-138 -106t-152.5 -57t-159 -15.5q-59 0 -113 21l-86 -406zM362 279q50 -39 127 -39q37 0 65.5 13t56.5 46.5 t51.5 98.5t44.5 163q15 72 19 121q1 19 1 36q0 24 -3 40q-5 28 -23 42t-37 17.5t-52 3.5q-49 0 -147 -37z" />
<glyph unicode="q" horiz-adv-x="1122" d="M23 543q14 91 42.5 173.5t77 158t112 130.5t152.5 88t193 33q220 0 481 -96l-307 -1444l-340 -57l117 545q-150 -103 -281 -103q-152 0 -222 142q-43 86 -43 227q0 90 18 203zM348 430q-3 -26 -3 -46q0 -23 3 -40q5 -32 19 -51.5t31.5 -26t41.5 -6.5q67 0 162 64l109 507 q-45 25 -121 25q-88 0 -140.5 -77t-82.5 -222q-15 -73 -19 -127z" />
<glyph unicode="r" horiz-adv-x="901" d="M-25 0l232 1096h272l-28 -131q93 88 166 124.5t159 36.5q43 0 74.5 -12.5t50 -31.5t27.5 -51q10 -31 12 -61q1 -10 1 -22q0 -24 -3 -52q-4 -44 -9.5 -75.5t-15.5 -77.5l-264 -20q5 21 5 38q0 19 -6 31q-12 24 -46 25q-70 0 -141 -74l-158 -743h-328z" />
<glyph unicode="s" horiz-adv-x="915" d="M-59 119l116 246q54 -60 137.5 -98t153.5 -38q48 0 79.5 21t31.5 61q0 25 -27.5 49t-69 44t-90 50t-90 63t-69 87.5t-27.5 120.5q0 178 131 289.5t348 111.5q164 0 246 -77t82 -203q0 -20 -4 -60l-271 -51q5 40 5 47q0 47 -28 72t-79 25q-46 0 -81.5 -27t-35.5 -70 q0 -29 21.5 -53.5t56 -43.5t76 -39t82.5 -45t75.5 -55t56 -75.5t21.5 -101.5q0 -178 -122 -288t-318 -110q-255 0 -407 148z" />
<glyph unicode="t" horiz-adv-x="800" d="M53 840l53 256h148l37 178l352 92l-57 -270h245l-73 -256h-228l-102 -473q-4 -19 -4 -34q0 -63 72 -63q64 0 166 52l-21 -267q-142 -84 -305 -84q-153 0 -213 99q-37 61 -37 158q0 59 14 132l101 480h-148z" />
<glyph unicode="u" horiz-adv-x="1175" d="M33 352l157 744h330l-153 -725q-6 -27 -6 -49q0 -76 81 -76q100 0 176 90l162 760h330l-168 -787q-6 -31 5 -48t36 -17q50 0 125 41l-35 -226q-49 -41 -119 -64.5t-141 -23.5q-81 0 -131 41q-44 36 -44 102q0 9 1 19q-179 -162 -346 -162q-164 0 -233 94q-43 58 -43 155 q0 59 16 132z" />
<glyph unicode="v" horiz-adv-x="1026" d="M63 1096h351l32 -752l336 752h332l-567 -1096h-379z" />
<glyph unicode="w" horiz-adv-x="1599" d="M74 1096h340l-8 -705l317 705h364l7 -705l276 705h324l-523 -1096h-358l-6 721l-320 -721h-350z" />
<glyph unicode="x" horiz-adv-x="1013" d="M-170 0l440 545l-190 551h348l100 -332l242 332h346l-446 -537l192 -559h-356l-100 326l-248 -326h-328z" />
<glyph unicode="y" horiz-adv-x="1136" d="M-102 -346l94 248q146 -117 348 -117q80 0 132 38t67 109l36 172q-143 -104 -276 -104q-163 0 -231 95q-44 60 -44 159q0 58 15 129l151 715h330l-147 -699q-6 -28 -6 -50q0 -79 82 -79q45 0 93.5 28.5t84.5 70.5l153 729h330l-242 -1141q-46 -207 -189.5 -317.5 t-375.5 -110.5q-249 0 -405 125z" />
<glyph unicode="z" horiz-adv-x="964" d="M-88 0l43 199l569 639h-426l58 260h837l-45 -211l-571 -629h444l-55 -258h-854z" />
<glyph unicode="{" horiz-adv-x="739" d="M-18 397l55 269q81 0 129 25t61 91l97 449q36 167 137 249.5t256 82.5q131 0 209 -41l-99 -238q-56 25 -108 25q-88 0 -107 -88l-102 -478q-14 -72 -65.5 -130t-125.5 -81q65 -21 91.5 -78.5t11.5 -129.5l-103 -480q-19 -86 70 -86q53 0 119 25l-2 -240 q-106 -41 -211 -41q-67 0 -122 18t-96 56.5t-55 98t1 143.5l100 467q14 65 -23 88.5t-118 23.5z" />
<glyph unicode="|" horiz-adv-x="577" d="M-111 -471l426 2007h295l-428 -2007h-293z" />
<glyph unicode="}" horiz-adv-x="739" d="M-242 -457l99 238q56 -25 108 -25q88 0 107 88l102 478q14 72 65.5 129.5t125.5 80.5q-64 21 -91 79t-12 130l103 480q19 86 -70 86q-53 0 -119 -25l2 240q106 41 211 41q67 0 122 -18t96.5 -56.5t55.5 -98t-1 -143.5l-101 -467q-14 -65 23 -88.5t118 -23.5l-55 -269 q-81 0 -129 -25t-61 -91l-97 -449q-36 -167 -137 -249.5t-256 -82.5q-131 0 -209 41z" />
<glyph unicode="~" d="M27 580q67 131 156.5 202.5t219.5 71.5q71 0 184 -36t138 -36q32 0 58 19t53 71l219 -79q-68 -131 -161.5 -203t-225.5 -72q-55 0 -162.5 35t-151.5 35q-33 0 -59 -17.5t-51 -72.5z" />
<glyph unicode="&#xa1;" horiz-adv-x="634" d="M-72 -338l234 977h305l-180 -977h-359zM176 768l70 328h332l-68 -328h-334z" />
<glyph unicode="&#xa2;" d="M74.5 465.5q-3.5 95.5 21.5 226.5q56 260 167.5 392.5t291.5 166.5l61 285h244l-59 -279q303 -40 225 -409l-299 -27q34 180 -76 180q-54 0 -89 -23.5t-67.5 -93.5t-60.5 -198q-15 -72 -15 -125.5t12 -86t35.5 -52.5t51.5 -27.5t64 -7.5q75 0 171 28.5t162 67.5l-22 -258 q-192 -96 -336 -110l-63 -295h-244l65 305q-68 23 -118 64.5t-84.5 111t-38 165z" />
<glyph unicode="&#xa3;" d="M-68 0l48 225q41 23 50 28t40 24t39 27t27.5 26t26 32t15 35t12.5 45q12 67 17 140h-191l47 233h175q28 192 32 209q15 74 38 133.5t65 118t99 98t143 64t194 24.5q73 0 133.5 -17t101.5 -46t70.5 -69t41.5 -85.5t14.5 -95.5t-11.5 -100l-301 -50q17 78 -10 121t-92 43 q-141 0 -170 -147q-23 -112 -31 -201h410l-50 -233h-385q-4 -59 -16 -119q-14 -62 -39.5 -102.5t-77.5 -81.5h576l-60 -279h-981z" />
<glyph unicode="&#xa4;" d="M-72 317l205 170q-31 81 -6 195q22 111 90 197l-135 170l192 157l132 -168q104 52 210 52q108 0 187 -52l205 168l127 -157l-207 -170q28 -83 6 -197q-24 -110 -88 -193l133 -172l-195 -159l-131 170q-98 -52 -211 -52q-112 0 -186 52l-205 -170zM373 682 q-14 -63 23 -111.5t100 -48.5t120.5 48.5t71.5 111.5q12 63 -25 111.5t-100 48.5t-120.5 -48.5t-69.5 -111.5z" />
<glyph unicode="&#xa5;" d="M25 582l51 233h225l-168 619h348l109 -502l325 502h342l-434 -619h215l-51 -233h-313l-123 -582h-324l123 582h-325z" />
<glyph unicode="&#xa6;" horiz-adv-x="577" d="M-111 -471l170 803h295l-172 -803h-293zM145 733l170 803h295l-172 -803h-293z" />
<glyph unicode="&#xa7;" horiz-adv-x="1112" d="M-98 -12l172 239q123 -164 276 -164q66 0 104 26.5t38 76.5q0 31 -33.5 63t-83.5 58t-108.5 64t-108.5 79t-83.5 105.5t-33.5 140.5q0 110 49.5 184t136.5 137q0 221 134.5 343t371.5 122q178 0 281.5 -92t103.5 -242q0 -30 -6 -65q-166 -19 -319 -39q4 32 4 51 q0 121 -107 121q-49 0 -88 -30.5t-39 -88.5q0 -35 25 -68t65 -60t88.5 -54.5t96.5 -59t88 -66.5t65 -84t25 -105q0 -97 -46.5 -166.5t-133.5 -137.5q8 -36 8 -77q0 -197 -135.5 -300.5t-395.5 -103.5q-255 0 -411 193zM307 729q0 -49 56.5 -92t163 -102t169.5 -111 q33 47 33 90q0 31 -24 57.5t-66 51t-89 50.5t-103.5 66.5t-98.5 87.5q-41 -44 -41 -98z" />
<glyph unicode="&#xa8;" horiz-adv-x="1024" d="M180 1243l56 264h247l-55 -264h-248zM539 1243l55 264h248l-56 -264h-247z" />
<glyph unicode="&#xa9;" horiz-adv-x="1546" d="M72 602q0 170 63.5 327.5t172 275t262 187.5t323.5 70q175 -1 314.5 -84t216.5 -227.5t77 -321.5q0 -170 -63.5 -327.5t-172 -274t-262 -186.5t-323.5 -70q-175 0 -314.5 83t-216.5 227t-77 321zM205 623q0 -110 31.5 -203t91.5 -162t155 -108t215 -39q141 0 267 58.5 t213.5 155t138.5 223.5t51 261q0 148 -54 262t-167.5 182t-272.5 68q-141 0 -267 -58.5t-213 -155t-138 -223.5t-51 -261zM408 575q0 58 16 140q96 448 473 448q120 0 184 -60.5t64 -162.5q0 -40 -8 -76l-207 -33q2 12 2 35q0 95 -84 95q-73 0 -120 -56.5t-77 -189.5 q-10 -44 -10 -101q0 -145 145 -145q106 0 228 72l18 -172q-70 -44 -154.5 -71.5t-162.5 -27.5q-141 0 -224 77t-83 228z" />
<glyph unicode="&#xaa;" horiz-adv-x="847" d="M109 1040q32 212 149.5 317t288.5 105q169 0 338 -59l-113 -485q-10 -46 33 -46q24 0 88 31l-25 -160q-75 -59 -192 -59q-55 0 -90 27t-39 77q-134 -104 -258 -104q-105 0 -156 90t-24 266zM357 964q-1 -33 9 -51t22 -24t30 -6q55 0 112 41l76 336q-29 16 -78 16 q-125 0 -163 -225q-7 -54 -8 -87z" />
<glyph unicode="&#xab;" horiz-adv-x="1284" d="M4 631l457 465h319l-424 -475l217 -496h-268zM569 631l457 465h320l-424 -475l217 -496h-269z" />
<glyph unicode="&#xac;" d="M76 543l57 276h877l-121 -577h-277l64 301h-600z" />
<glyph unicode="&#xad;" horiz-adv-x="829" d="M82 543l59 276h588l-59 -276h-588z" />
<glyph unicode="&#xae;" horiz-adv-x="1079" d="M74 940q26 222 188.5 372t376.5 150q140 0 246 -68t156 -188t32 -266q-26 -222 -188.5 -372t-376.5 -150q-140 0 -246 68t-156 188t-32 266zM197 940q-23 -176 62.5 -287.5t264.5 -111.5q163 0 283.5 114t142.5 285q23 176 -62.5 287.5t-264.5 111.5q-163 0 -283.5 -114 t-142.5 -285zM315 666l117 544h197q30 0 57.5 -4t56 -15.5t48 -30t29.5 -49t5 -69.5q-8 -63 -37 -99.5t-75 -59.5l61 -217h-166l-49 182h-41l-39 -182h-164zM545 977q8 -2 30 -2q66 0 78 61q6 28 -5 39.5t-46 11.5h-33z" />
<glyph unicode="&#xaf;" horiz-adv-x="1024" d="M180 1264l47 221h592l-47 -221h-592z" />
<glyph unicode="&#xb0;" horiz-adv-x="655" d="M152 1188q25 114 121 194t210 80t177 -80t38 -194q-23 -114 -120 -193.5t-211 -79.5t-176 79.5t-39 193.5zM326 1188q-8 -40 14.5 -69t62.5 -29q41 0 77.5 29t43.5 69q9 41 -14 70.5t-64 29.5q-40 0 -75.5 -29.5t-44.5 -70.5z" />
<glyph unicode="&#xb1;" d="M-39 0l57 274h877l-59 -274h-875zM88 608l59 277h299l52 241h276l-51 -241h301l-59 -277h-301l-54 -248h-276l53 248h-299z" />
<glyph unicode="&#xb2;" horiz-adv-x="655" d="M29 664l32 155l322 289q76 66 76 115q0 24 -14.5 36.5t-38.5 12.5q-67 0 -91 -80l-194 45q74 225 328 225q113 0 175 -59.5t62 -151.5q0 -145 -141 -260l-154 -125h254l-43 -202h-573z" />
<glyph unicode="&#xb3;" horiz-adv-x="655" d="M74 762l67 166q25 -32 77.5 -58t113.5 -26q42 0 70 20t28 60q0 49 -68 49h-86l37 166h88q37 0 60.5 25t23.5 55q0 23 -13.5 38t-39.5 15q-66 0 -90 -80l-188 45q35 113 107.5 169t203.5 56q113 0 178.5 -52t65.5 -144q0 -64 -36.5 -113.5t-97.5 -73.5q89 -44 89 -139 q0 -60 -19 -108t-51.5 -79.5t-76.5 -53t-92 -31t-101 -9.5q-79 0 -145.5 28.5t-104.5 74.5z" />
<glyph unicode="&#xb4;" horiz-adv-x="1024" d="M272 1212l252 324h322l-309 -324h-265z" />
<glyph unicode="&#xb6;" horiz-adv-x="1478" d="M100 958q53 248 201.5 362t427.5 114h760l-350 -1643h-240l291 1364h-199l-291 -1364h-239l141 666q-36 -8 -106 -8q-250 0 -351 123.5t-45 385.5zM420 936q-26 -121 17 -166t155 -45q34 0 70 4l90 426h-82q-112 0 -167.5 -45.5t-82.5 -173.5z" />
<glyph unicode="&#xb7;" horiz-adv-x="493" d="M41 518l72 328h333l-71 -328h-334z" />
<glyph unicode="&#xb8;" horiz-adv-x="1024" d="M141 -281l156 138q34 -58 90 -58q36 0 57.5 20.5t25.5 52t-1 65t-18 63.5h258q46 -191 -41.5 -305.5t-264.5 -114.5q-95 0 -167 37.5t-95 101.5z" />
<glyph unicode="&#xb9;" horiz-adv-x="655" d="M63 664l41 204h160l66 314l-176 -78l45 213l256 117h155l-118 -566h163l-43 -204h-549z" />
<glyph unicode="&#xba;" horiz-adv-x="847" d="M137 1071q82 391 447 391q172 0 248.5 -96.5t33.5 -296.5q-40 -196 -155.5 -292.5t-292.5 -96.5q-165 0 -243.5 97.5t-37.5 293.5zM383.5 905.5q16.5 -45.5 73.5 -45.5q58 0 94.5 47t60.5 162q24 121 8 169t-73 48q-56 0 -94 -49.5t-62 -165.5q-24 -120 -7.5 -165.5z" />
<glyph unicode="&#xbb;" horiz-adv-x="1284" d="M-80 125l424 475l-217 496h268l301 -506l-456 -465h-320zM485 125l424 475l-217 496h269l301 -506l-457 -465h-320z" />
<glyph unicode="&#xbc;" horiz-adv-x="1650" d="M47 664l43 204h160l67 314l-176 -78l45 213l256 117h156l-121 -566h164l-43 -204h-551zM94 0l1217 1434h252l-1219 -1434h-250zM817 133l35 164l358 471h318l-96 -451h75l-39 -184h-75l-29 -133h-231l28 133h-344zM1073 317h127l47 224z" />
<glyph unicode="&#xbd;" horiz-adv-x="1650" d="M47 664l43 204h160l67 314l-176 -78l45 213l256 117h156l-121 -566h164l-43 -204h-551zM94 0l1217 1434h252l-1219 -1434h-250zM883 0l32 156l322 288q76 66 76 115q0 24 -14.5 36.5t-38.5 12.5q-67 0 -91 -80l-194 45q74 226 328 226q113 0 175 -59.5t62 -151.5 q0 -145 -141 -260l-154 -125h254l-43 -203h-573z" />
<glyph unicode="&#xbe;" horiz-adv-x="1650" d="M51 762l68 166q25 -32 77 -58t113 -26q42 0 70.5 20t28.5 60q0 49 -68 49h-86l37 166h88q37 0 60.5 25t23.5 55q0 23 -13.5 38t-39.5 15q-67 0 -91 -80l-188 45q35 113 107.5 169t203.5 56q113 0 178.5 -52t65.5 -144q0 -64 -36 -113.5t-97 -73.5q40 -20 64 -55.5 t24 -83.5q0 -60 -19 -108t-51.5 -79.5t-76.5 -53t-92 -31t-101 -9.5q-79 0 -145.5 28.5t-104.5 74.5zM92 0l1215 1434h252l-1217 -1434h-250zM813 133l35 164l358 471h318l-94 -451h75l-41 -184h-75l-27 -133h-232l27 133h-344zM1071 317h127l47 224z" />
<glyph unicode="&#xbf;" horiz-adv-x="823" d="M-152 -51q0 58 16 111.5t38 92.5t60.5 82t68.5 69.5t78 64.5l42.5 34t37.5 30.5t29.5 25.5t26.5 27.5t19.5 27.5t19 34t14 40t13.5 51h320q-26 -120 -51 -181.5t-73.5 -117.5t-148.5 -135q-6 -5 -39 -29.5t-46.5 -36t-35.5 -34t-31 -44.5t-9 -45q0 -36 24.5 -59t71.5 -23 q71 0 112 41t56 107l299 -59q-21 -85 -62.5 -154t-104.5 -123t-155 -83.5t-205 -29.5q-176 0 -280.5 87.5t-104.5 228.5zM322 768l69 328h334l-70 -328h-333z" />
<glyph unicode="&#xc0;" horiz-adv-x="1167" d="M-186 0l718 1434h406l109 -1434h-338l-15 264h-442l-129 -264h-309zM379 537h301l-33 559zM451 1868h299l108 -324h-227z" />
<glyph unicode="&#xc1;" horiz-adv-x="1167" d="M-186 0l718 1434h406l109 -1434h-338l-15 264h-442l-129 -264h-309zM379 537h301l-33 559zM610 1544l252 324h322l-310 -324h-264z" />
<glyph unicode="&#xc2;" horiz-adv-x="1167" d="M-186 0l718 1434h406l109 -1434h-338l-15 264h-442l-129 -264h-309zM379 537h301l-33 559zM389 1544l279 324h282l144 -324h-248l-70 146l-131 -146h-256z" />
<glyph unicode="&#xc3;" horiz-adv-x="1167" d="M-186 0l718 1434h406l109 -1434h-338l-15 264h-442l-129 -264h-309zM379 537h301l-33 559zM408 1624q91 217 256 217q47 0 120.5 -30.5t94.5 -30.5q28 0 43.5 15.5t38.5 62.5l180 -72q-110 -225 -281 -225q-37 0 -105.5 31.5t-92.5 31.5q-26 0 -39.5 -14t-36.5 -56z" />
<glyph unicode="&#xc4;" horiz-adv-x="1167" d="M-186 0l718 1434h406l109 -1434h-338l-15 264h-442l-129 -264h-309zM379 537h301l-33 559zM434 1573l55 264h248l-55 -264h-248zM793 1573l55 264h248l-56 -264h-247z" />
<glyph unicode="&#xc5;" horiz-adv-x="1167" d="M-186 0l718 1434h406l109 -1434h-338l-15 264h-442l-129 -264h-309zM379 537h301l-33 559zM545 1704q17 86 93 142.5t179 56.5t155.5 -56.5t35.5 -142.5q-19 -86 -95.5 -142.5t-179.5 -56.5t-155 56.5t-33 142.5zM707 1704q-15 -66 55 -66q67 0 82 66q12 65 -56 65 q-69 0 -81 -65z" />
<glyph unicode="&#xc6;" horiz-adv-x="1714" d="M-233 0l1038 1434h952l-63 -293h-500l-59 -283h475l-60 -278h-475l-59 -287h528l-63 -293h-854l57 264h-395l-187 -264h-335zM479 537h262l113 536z" />
<glyph unicode="&#xc7;" horiz-adv-x="1165" d="M32.5 455q-6.5 128 22.5 272q69 370 258 552.5t478 182.5q217 0 316 -133.5t60 -349.5l-319 -27q38 211 -125 211q-129 0 -208 -105.5t-124 -330.5q-23 -109 -25.5 -189t11.5 -131.5t47.5 -82t78 -42.5t107.5 -12q155 0 375 115l-24 -309q-151 -75 -312 -94 q38 -184 -49.5 -293t-259.5 -109q-95 0 -167 37.5t-95 101.5l155 138q34 -58 91 -58q43 0 65 30t19.5 70.5t-13.5 80.5q-121 19 -202.5 85t-117.5 164t-42.5 226z" />
<glyph unicode="&#xc8;" horiz-adv-x="1075" d="M-10 0l303 1434h825l-63 -293h-500l-59 -285h475l-60 -276h-475l-59 -287h528l-63 -293h-852zM451 1868h299l108 -324h-227z" />
<glyph unicode="&#xc9;" horiz-adv-x="1075" d="M-10 0l303 1434h825l-63 -293h-500l-59 -285h475l-60 -276h-475l-59 -287h528l-63 -293h-852zM582 1544l252 324h321l-309 -324h-264z" />
<glyph unicode="&#xca;" horiz-adv-x="1075" d="M-10 0l303 1434h825l-63 -293h-500l-59 -285h475l-60 -276h-475l-59 -287h528l-63 -293h-852zM375 1544l278 324h283l143 -324h-248l-69 146l-131 -146h-256z" />
<glyph unicode="&#xcb;" horiz-adv-x="1075" d="M-10 0l303 1434h825l-63 -293h-500l-59 -285h475l-60 -276h-475l-59 -287h528l-63 -293h-852zM430 1573l55 264h248l-55 -264h-248zM788 1573l56 264h248l-56 -264h-248z" />
<glyph unicode="&#xcc;" horiz-adv-x="608" d="M-10 0l303 1434h325l-305 -1434h-323zM186 1868h299l109 -324h-227z" />
<glyph unicode="&#xcd;" horiz-adv-x="608" d="M-10 0l303 1434h325l-305 -1434h-323zM346 1544l252 324h322l-310 -324h-264z" />
<glyph unicode="&#xce;" horiz-adv-x="608" d="M-10 0l303 1434h325l-305 -1434h-323zM129 1544l279 324h282l144 -324h-248l-70 146l-131 -146h-256z" />
<glyph unicode="&#xcf;" horiz-adv-x="608" d="M-10 0l303 1434h325l-305 -1434h-323zM180 1573l56 264h247l-55 -264h-248zM539 1573l55 264h248l-56 -264h-247z" />
<glyph unicode="&#xd0;" horiz-adv-x="1316" d="M-25 582l58 274h137l123 578h532q271 0 387 -170.5t52 -524.5q-35 -194 -104.5 -337.5t-167.5 -230.5t-217 -129t-263 -42h-522l123 582h-138zM375 293h190q70 0 119.5 17t96.5 63.5t82.5 135t64.5 224.5q21 101 24.5 173t-7.5 117.5t-40 72t-66.5 36t-93.5 9.5h-190 l-61 -285h254l-60 -274h-252z" />
<glyph unicode="&#xd1;" horiz-adv-x="1423" d="M-10 0l303 1434h332l305 -869l184 869h320l-306 -1434h-331l-312 850l-180 -850h-315zM555 1622q91 217 256 217q47 0 120.5 -30.5t94.5 -30.5q28 0 43.5 15.5t38.5 61.5l180 -71q-110 -225 -280 -225q-37 0 -106 31.5t-93 31.5q-26 0 -39.5 -14t-36.5 -56z" />
<glyph unicode="&#xd2;" horiz-adv-x="1275" d="M29.5 426q-6.5 124 25.5 289q30 161 85.5 289t125.5 212.5t158 140.5t179.5 80.5t191.5 24.5q557 0 422 -743q-30 -161 -85.5 -289t-126 -213t-158 -141t-179.5 -80.5t-193 -24.5q-99 0 -176.5 24.5t-139 78.5t-92.5 141t-37.5 211zM357 534.5q-4 -78.5 7.5 -128 t37.5 -80.5t60 -43.5t79 -12.5t84 12t78.5 43t72 80.5t62 128.5t51.5 183t26 182.5t-7.5 128t-37.5 80.5t-60 43t-79 12t-84 -12t-78.5 -42.5t-72 -80t-62 -128.5t-51.5 -183t-26 -182.5zM522 1868h299l109 -324h-228z" />
<glyph unicode="&#xd3;" horiz-adv-x="1275" d="M29.5 426q-6.5 124 25.5 289q30 161 85.5 289t125.5 212.5t158 140.5t179.5 80.5t191.5 24.5q557 0 422 -743q-30 -161 -85.5 -289t-126 -213t-158 -141t-179.5 -80.5t-193 -24.5q-99 0 -176.5 24.5t-139 78.5t-92.5 141t-37.5 211zM357 534.5q-4 -78.5 7.5 -128 t37.5 -80.5t60 -43.5t79 -12.5t84 12t78.5 43t72 80.5t62 128.5t51.5 183t26 182.5t-7.5 128t-37.5 80.5t-60 43t-79 12t-84 -12t-78.5 -42.5t-72 -80t-62 -128.5t-51.5 -183t-26 -182.5zM670 1544l252 324h321l-309 -324h-264z" />
<glyph unicode="&#xd4;" horiz-adv-x="1275" d="M29.5 426q-6.5 124 25.5 289q30 161 85.5 289t125.5 212.5t158 140.5t179.5 80.5t191.5 24.5q557 0 422 -743q-30 -161 -85.5 -289t-126 -213t-158 -141t-179.5 -80.5t-193 -24.5q-99 0 -176.5 24.5t-139 78.5t-92.5 141t-37.5 211zM357 534.5q-4 -78.5 7.5 -128 t37.5 -80.5t60 -43.5t79 -12.5t84 12t78.5 43t72 80.5t62 128.5t51.5 183t26 182.5t-7.5 128t-37.5 80.5t-60 43t-79 12t-84 -12t-78.5 -42.5t-72 -80t-62 -128.5t-51.5 -183t-26 -182.5zM457 1544l278 324h283l143 -324h-248l-69 146l-131 -146h-256z" />
<glyph unicode="&#xd5;" horiz-adv-x="1275" d="M29.5 426q-6.5 124 25.5 289q30 161 85.5 289t125.5 212.5t158 140.5t179.5 80.5t191.5 24.5q557 0 422 -743q-30 -161 -85.5 -289t-126 -213t-158 -141t-179.5 -80.5t-193 -24.5q-99 0 -176.5 24.5t-139 78.5t-92.5 141t-37.5 211zM357 534.5q-4 -78.5 7.5 -128 t37.5 -80.5t60 -43.5t79 -12.5t84 12t78.5 43t72 80.5t62 128.5t51.5 183t26 182.5t-7.5 128t-37.5 80.5t-60 43t-79 12t-84 -12t-78.5 -42.5t-72 -80t-62 -128.5t-51.5 -183t-26 -182.5zM479 1622q91 217 256 217q47 0 120.5 -30.5t94.5 -30.5q28 0 43.5 15.5t38.5 61.5 l180 -71q-110 -225 -280 -225q-37 0 -106 31.5t-93 31.5q-26 0 -39.5 -14t-36.5 -56z" />
<glyph unicode="&#xd6;" horiz-adv-x="1275" d="M29.5 426q-6.5 124 25.5 289q30 161 85.5 289t125.5 212.5t158 140.5t179.5 80.5t191.5 24.5q557 0 422 -743q-30 -161 -85.5 -289t-126 -213t-158 -141t-179.5 -80.5t-193 -24.5q-99 0 -176.5 24.5t-139 78.5t-92.5 141t-37.5 211zM357 534.5q-4 -78.5 7.5 -128 t37.5 -80.5t60 -43.5t79 -12.5t84 12t78.5 43t72 80.5t62 128.5t51.5 183t26 182.5t-7.5 128t-37.5 80.5t-60 43t-79 12t-84 -12t-78.5 -42.5t-72 -80t-62 -128.5t-51.5 -183t-26 -182.5zM516 1573l55 264h248l-55 -264h-248zM874 1573l56 264h248l-56 -264h-248z" />
<glyph unicode="&#xd7;" d="M0 395l346 285l-225 285l237 196l226 -284l344 284l155 -196l-344 -285l224 -285l-238 -196l-225 284l-344 -284z" />
<glyph unicode="&#xd8;" horiz-adv-x="1275" d="M-57 0l145 172q-96 184 -31 543q30 161 85.5 289t125.5 212.5t158 140.5t179.5 80.5t191.5 24.5q196 0 307 -94l119 139l108 -73l-145 -172q97 -186 33 -543q-30 -161 -85.5 -289t-126 -213t-158 -141t-179.5 -80.5t-193 -24.5q-198 0 -309 97l-123 -146zM356 489 l521 611q-46 63 -144 63q-45 0 -84 -12t-78.5 -42.5t-72 -80t-62 -128.5t-51.5 -183q-29 -136 -29 -228zM395 334q45 -64 148 -64q45 0 84 12t78.5 43t72 80.5t62 128.5t51.5 183q30 141 27 231z" />
<glyph unicode="&#xd9;" horiz-adv-x="1347" d="M84 502l197 932h325l-196 -924q-50 -240 170 -240q111 0 177.5 59t92.5 181l194 924h326l-199 -932q-111 -531 -655 -531q-254 0 -369 145t-63 386zM545 1868h299l108 -324h-227z" />
<glyph unicode="&#xda;" horiz-adv-x="1347" d="M84 502l197 932h325l-196 -924q-50 -240 170 -240q111 0 177.5 59t92.5 181l194 924h326l-199 -932q-111 -531 -655 -531q-254 0 -369 145t-63 386zM709 1544l252 324h321l-309 -324h-264z" />
<glyph unicode="&#xdb;" horiz-adv-x="1347" d="M84 502l197 932h325l-196 -924q-50 -240 170 -240q111 0 177.5 59t92.5 181l194 924h326l-199 -932q-111 -531 -655 -531q-254 0 -369 145t-63 386zM502 1544l278 324h283l143 -324h-248l-69 146l-131 -146h-256z" />
<glyph unicode="&#xdc;" horiz-adv-x="1347" d="M84 502l197 932h325l-196 -924q-50 -240 170 -240q111 0 177.5 59t92.5 181l194 924h326l-199 -932q-111 -531 -655 -531q-254 0 -369 145t-63 386zM555 1573l55 264h248l-55 -264h-248zM913 1573l56 264h248l-56 -264h-248z" />
<glyph unicode="&#xdd;" horiz-adv-x="1138" d="M129 1434h360l113 -576l361 576h350l-627 -932l-106 -502h-326l106 502zM600 1544l252 324h322l-310 -324h-264z" />
<glyph unicode="&#xde;" horiz-adv-x="1161" d="M-10 0l303 1434h325l-40 -195h98q96 0 167 -9.5t126.5 -31.5t88.5 -57.5t49.5 -88.5t13.5 -124t-23 -164q-107 -510 -611 -510q-68 0 -116 10l-58 -264h-323zM428 539q45 -9 82 -9q111 0 174 45.5t88 165.5q28 129 -8 175.5t-148 46.5h-98z" />
<glyph unicode="&#xdf;" horiz-adv-x="1202" d="M-25 0l244 1161q30 144 108.5 239.5t192.5 139t262 43.5q176 0 290 -86t114 -235q0 -78 -27 -145.5t-65 -111.5t-76 -81t-65 -70.5t-27 -62.5q0 -32 28 -78t61 -88.5t61 -113t28 -146.5q0 -173 -103.5 -283.5t-291.5 -110.5q-191 0 -306 103l119 241q27 -28 69 -48.5 t83 -20.5q54 0 84 25t30 73q0 28 -17 58.5t-41 61.5t-48.5 66t-41.5 85t-17 106q0 61 23.5 118.5t57.5 101t67.5 83.5t57 82t23.5 80q0 43 -32 70.5t-87 27.5q-72 0 -123.5 -39t-66.5 -112l-242 -1133h-326z" />
<glyph unicode="&#xe0;" horiz-adv-x="1169" d="M23 543q14 91 42.5 173.5t77 158t112 130.5t152.5 88t193 33q220 0 481 -96l-153 -721q-6 -32 6 -48.5t37 -16.5q48 0 123 41l-35 -226q-49 -41 -119 -64.5t-141 -23.5q-80 0 -130.5 41t-43.5 121q-187 -162 -355 -162q-152 0 -222 142t-25 430zM347.5 430 q-4.5 -54 0.5 -86t19 -51.5t31.5 -26t41.5 -6.5q67 0 162 64l109 507q-45 25 -121 25q-88 0 -140.5 -77t-82.5 -222q-15 -73 -19.5 -127zM362 1536h300l108 -324h-227z" />
<glyph unicode="&#xe1;" horiz-adv-x="1169" d="M23 543q14 91 42.5 173.5t77 158t112 130.5t152.5 88t193 33q220 0 481 -96l-153 -721q-6 -32 6 -48.5t37 -16.5q48 0 123 41l-35 -226q-49 -41 -119 -64.5t-141 -23.5q-80 0 -130.5 41t-43.5 121q-187 -162 -355 -162q-152 0 -222 142t-25 430zM347.5 430 q-4.5 -54 0.5 -86t19 -51.5t31.5 -26t41.5 -6.5q67 0 162 64l109 507q-45 25 -121 25q-88 0 -140.5 -77t-82.5 -222q-15 -73 -19.5 -127zM518 1212l252 324h322l-310 -324h-264z" />
<glyph unicode="&#xe2;" horiz-adv-x="1169" d="M23 543q14 91 42.5 173.5t77 158t112 130.5t152.5 88t193 33q220 0 481 -96l-153 -721q-6 -32 6 -48.5t37 -16.5q48 0 123 41l-35 -226q-49 -41 -119 -64.5t-141 -23.5q-80 0 -130.5 41t-43.5 121q-187 -162 -355 -162q-152 0 -222 142t-25 430zM287 1212l278 324h283 l143 -324h-248l-69 146l-131 -146h-256zM347.5 430q-4.5 -54 0.5 -86t19 -51.5t31.5 -26t41.5 -6.5q67 0 162 64l109 507q-45 25 -121 25q-88 0 -140.5 -77t-82.5 -222q-15 -73 -19.5 -127z" />
<glyph unicode="&#xe3;" horiz-adv-x="1169" d="M23 543q14 91 42.5 173.5t77 158t112 130.5t152.5 88t193 33q220 0 481 -96l-153 -721q-6 -32 6 -48.5t37 -16.5q48 0 123 41l-35 -226q-49 -41 -119 -64.5t-141 -23.5q-80 0 -130.5 41t-43.5 121q-187 -162 -355 -162q-152 0 -222 142t-25 430zM307 1292q91 217 256 217 q47 0 120.5 -30.5t94.5 -30.5q28 0 43.5 15.5t38.5 62.5l180 -72q-110 -225 -280 -225q-37 0 -106 31.5t-93 31.5q-26 0 -39.5 -14t-36.5 -55zM347.5 430q-4.5 -54 0.5 -86t19 -51.5t31.5 -26t41.5 -6.5q67 0 162 64l109 507q-45 25 -121 25q-88 0 -140.5 -77t-82.5 -222 q-15 -73 -19.5 -127z" />
<glyph unicode="&#xe4;" horiz-adv-x="1169" d="M23 543q14 91 42.5 173.5t77 158t112 130.5t152.5 88t193 33q220 0 481 -96l-153 -721q-6 -32 6 -48.5t37 -16.5q48 0 123 41l-35 -226q-49 -41 -119 -64.5t-141 -23.5q-80 0 -130.5 41t-43.5 121q-187 -162 -355 -162q-152 0 -222 142t-25 430zM347.5 430 q-4.5 -54 0.5 -86t19 -51.5t31.5 -26t41.5 -6.5q67 0 162 64l109 507q-45 25 -121 25q-88 0 -140.5 -77t-82.5 -222q-15 -73 -19.5 -127zM356 1243l56 264h247l-55 -264h-248zM715 1243l55 264h248l-55 -264h-248z" />
<glyph unicode="&#xe5;" horiz-adv-x="1169" d="M23 543q14 91 42.5 173.5t77 158t112 130.5t152.5 88t193 33q220 0 481 -96l-153 -721q-6 -32 6 -48.5t37 -16.5q48 0 123 41l-35 -226q-49 -41 -119 -64.5t-141 -23.5q-80 0 -130.5 41t-43.5 121q-187 -162 -355 -162q-152 0 -222 142t-25 430zM347.5 430 q-4.5 -54 0.5 -86t19 -51.5t31.5 -26t41.5 -6.5q67 0 162 64l109 507q-45 25 -121 25q-88 0 -140.5 -77t-82.5 -222q-15 -73 -19.5 -127zM457 1374q17 86 93 142.5t179 56.5t155.5 -56.5t35.5 -142.5q-19 -86 -95.5 -142t-179.5 -56t-155 56t-33 142zM618 1374 q-15 -65 56 -65q67 0 82 65q12 66 -56 66q-70 0 -82 -66z" />
<glyph unicode="&#xe6;" horiz-adv-x="1630" d="M23 543q14 91 42.5 173.5t77 158t112 130.5t152.5 88t193 33q174 0 358 -57q114 57 259 57q416 0 317 -479l-41 -192h-549q-36 -228 158 -228q72 0 159.5 30.5t161.5 72.5l-24 -260q-191 -99 -428 -99q-234 0 -322 158q-88 -74 -178.5 -116t-200.5 -42q-152 0 -222 142 t-25 430zM347.5 430q-4.5 -54 0.5 -86t19 -51.5t31.5 -26t41.5 -6.5q72 0 160 62v30q0 271 115 477q-50 27 -125 27q-88 0 -140.5 -77t-82.5 -222q-15 -73 -19.5 -127zM987 657h242q25 109 8.5 157t-84.5 48q-67 0 -103.5 -48t-62.5 -157z" />
<glyph unicode="&#xe7;" horiz-adv-x="987" d="M-37 -281l156 138q34 -58 90 -58q43 0 65 30t20 70.5t-13 80.5q-139 24 -208 124.5t-69 264.5q0 348 166 552.5t459 204.5q325 0 325 -280q0 -68 -14 -137l-297 -27q8 54 8 80q0 100 -82 100q-65 0 -117 -71.5t-78 -176.5t-26 -217q0 -84 37.5 -119.5t110.5 -35.5 q123 0 331 104l-24 -268q-147 -72 -271 -92q40 -185 -47.5 -295.5t-259.5 -110.5q-95 0 -167 37.5t-95 101.5z" />
<glyph unicode="&#xe8;" horiz-adv-x="1021" d="M4 352q0 111 20.5 217.5t67.5 208.5t116.5 178.5t176 123t236.5 46.5q416 0 317 -479l-41 -192h-549q-36 -228 158 -228q72 0 159.5 30.5t161.5 72.5l-24 -260q-191 -99 -428 -99q-177 0 -274 95.5t-97 285.5zM348 1536h299l109 -324h-228zM391 657h242q25 109 8.5 157 t-84.5 48q-67 0 -103.5 -48t-62.5 -157z" />
<glyph unicode="&#xe9;" horiz-adv-x="1021" d="M4 352q0 111 20.5 217.5t67.5 208.5t116.5 178.5t176 123t236.5 46.5q416 0 317 -479l-41 -192h-549q-36 -228 158 -228q72 0 159.5 30.5t161.5 72.5l-24 -260q-191 -99 -428 -99q-177 0 -274 95.5t-97 285.5zM391 657h242q25 109 8.5 157t-84.5 48q-67 0 -103.5 -48 t-62.5 -157zM483 1212l252 324h322l-309 -324h-265z" />
<glyph unicode="&#xea;" horiz-adv-x="1021" d="M4 352q0 111 20.5 217.5t67.5 208.5t116.5 178.5t176 123t236.5 46.5q416 0 317 -479l-41 -192h-549q-36 -228 158 -228q72 0 159.5 30.5t161.5 72.5l-24 -260q-191 -99 -428 -99q-177 0 -274 95.5t-97 285.5zM260 1212l279 324h282l144 -324h-248l-70 146l-131 -146 h-256zM391 657h242q25 109 8.5 157t-84.5 48q-67 0 -103.5 -48t-62.5 -157z" />
<glyph unicode="&#xeb;" horiz-adv-x="1021" d="M4 352q0 111 20.5 217.5t67.5 208.5t116.5 178.5t176 123t236.5 46.5q416 0 317 -479l-41 -192h-549q-36 -228 158 -228q72 0 159.5 30.5t161.5 72.5l-24 -260q-191 -99 -428 -99q-177 0 -274 95.5t-97 285.5zM324 1243l55 264h248l-56 -264h-247zM391 657h242 q25 109 8.5 157t-84.5 48q-67 0 -103.5 -48t-62.5 -157zM682 1243l55 264h248l-55 -264h-248z" />
<glyph unicode="&#xec;" horiz-adv-x="561" d="M-25 0l232 1096h330l-232 -1096h-330zM113 1536h299l108 -324h-227z" />
<glyph unicode="&#xed;" horiz-adv-x="561" d="M-25 0l232 1096h330l-232 -1096h-330zM264 1212l252 324h322l-310 -324h-264z" />
<glyph unicode="&#xee;" horiz-adv-x="561" d="M-25 0l232 1096h330l-232 -1096h-330zM49 1212l279 324h282l144 -324h-248l-70 146l-131 -146h-256z" />
<glyph unicode="&#xef;" horiz-adv-x="561" d="M-25 0l232 1096h330l-232 -1096h-330zM100 1243l56 264h247l-55 -264h-248zM459 1243l55 264h248l-55 -264h-248z" />
<glyph unicode="&#xf0;" horiz-adv-x="1112" d="M4 344q0 114 23.5 223.5t74.5 211t124 178.5t181.5 123t237.5 46q43 0 88 -18q-12 56 -43 127l-354 -43l29 137l278 33q-43 88 -98 166q212 4 321 8q57 -93 74 -137q143 20 250 33l-29 -138q-61 -6 -172 -22q31 -97 48 -211.5t15.5 -240t-22 -246.5t-70 -230.5t-122 -192 t-184.5 -131.5t-251 -49q-399 0 -399 373zM342 373q0 -78 28.5 -112t86.5 -34q66 0 117.5 54t78.5 135t40.5 159t13.5 142q0 78 -28 111.5t-87 33.5q-66 0 -117.5 -54t-78.5 -135t-40.5 -158.5t-13.5 -141.5z" />
<glyph unicode="&#xf1;" horiz-adv-x="1171" d="M-25 0l232 1096h262l-27 -117q91 67 196 107t193 40q156 0 215.5 -110t20.5 -295l-154 -721h-329l145 678q31 141 -88 141q-65 0 -174 -49l-164 -770h-328zM367 1292q91 217 256 217q47 0 120.5 -30.5t94.5 -30.5q28 0 43.5 15.5t38.5 62.5l180 -72q-110 -225 -281 -225 q-37 0 -105.5 31.5t-92.5 31.5q-26 0 -39.5 -14t-36.5 -55z" />
<glyph unicode="&#xf2;" horiz-adv-x="1112" d="M4 344q0 113 23.5 223t75 211.5t125 178.5t182 123t237.5 46q194 0 295.5 -94.5t101.5 -286.5q0 -113 -23.5 -222t-74.5 -209.5t-124.5 -176.5t-181.5 -121t-237 -45q-399 0 -399 373zM342 373q0 -78 28.5 -112t86.5 -34q66 0 117.5 54t78.5 135t40.5 159t13.5 142 q0 78 -28 111.5t-87 33.5q-66 0 -117.5 -54t-78.5 -135t-40.5 -158.5t-13.5 -141.5zM381 1536h299l108 -324h-227z" />
<glyph unicode="&#xf3;" horiz-adv-x="1112" d="M4 344q0 113 23.5 223t75 211.5t125 178.5t182 123t237.5 46q194 0 295.5 -94.5t101.5 -286.5q0 -113 -23.5 -222t-74.5 -209.5t-124.5 -176.5t-181.5 -121t-237 -45q-399 0 -399 373zM342 373q0 -78 28.5 -112t86.5 -34q66 0 117.5 54t78.5 135t40.5 159t13.5 142 q0 78 -28 111.5t-87 33.5q-66 0 -117.5 -54t-78.5 -135t-40.5 -158.5t-13.5 -141.5zM510 1212l252 324h321l-309 -324h-264z" />
<glyph unicode="&#xf4;" horiz-adv-x="1112" d="M4 344q0 113 23.5 223t75 211.5t125 178.5t182 123t237.5 46q194 0 295.5 -94.5t101.5 -286.5q0 -113 -23.5 -222t-74.5 -209.5t-124.5 -176.5t-181.5 -121t-237 -45q-399 0 -399 373zM311 1212l279 324h282l144 -324h-248l-70 146l-131 -146h-256zM342 373 q0 -78 28.5 -112t86.5 -34q66 0 117.5 54t78.5 135t40.5 159t13.5 142q0 78 -28 111.5t-87 33.5q-66 0 -117.5 -54t-78.5 -135t-40.5 -158.5t-13.5 -141.5z" />
<glyph unicode="&#xf5;" horiz-adv-x="1112" d="M4 344q0 113 23.5 223t75 211.5t125 178.5t182 123t237.5 46q194 0 295.5 -94.5t101.5 -286.5q0 -113 -23.5 -222t-74.5 -209.5t-124.5 -176.5t-181.5 -121t-237 -45q-399 0 -399 373zM330 1292q91 217 256 217q47 0 120.5 -30.5t94.5 -30.5q28 0 43.5 15.5t38.5 62.5 l180 -72q-110 -225 -281 -225q-37 0 -105.5 31.5t-92.5 31.5q-26 0 -39.5 -14t-36.5 -55zM342 373q0 -78 28.5 -112t86.5 -34q66 0 117.5 54t78.5 135t40.5 159t13.5 142q0 78 -28 111.5t-87 33.5q-66 0 -117.5 -54t-78.5 -135t-40.5 -158.5t-13.5 -141.5z" />
<glyph unicode="&#xf6;" horiz-adv-x="1112" d="M4 344q0 113 23.5 223t75 211.5t125 178.5t182 123t237.5 46q194 0 295.5 -94.5t101.5 -286.5q0 -113 -23.5 -222t-74.5 -209.5t-124.5 -176.5t-181.5 -121t-237 -45q-399 0 -399 373zM342 373q0 -78 28.5 -112t86.5 -34q66 0 117.5 54t78.5 135t40.5 159t13.5 142 q0 78 -28 111.5t-87 33.5q-66 0 -117.5 -54t-78.5 -135t-40.5 -158.5t-13.5 -141.5zM369 1243l55 264h248l-56 -264h-247zM727 1243l55 264h248l-55 -264h-248z" />
<glyph unicode="&#xf7;" d="M76 543l59 276h877l-60 -276h-876zM291 195l59 278h301l-59 -278h-301zM438 883l60 278h301l-60 -278h-301z" />
<glyph unicode="&#xf8;" horiz-adv-x="1112" d="M-92 0l137 141q-41 80 -41 203q0 113 23.5 223t75 211.5t125 178.5t182 123t237.5 46q185 0 285 -84l123 125l92 -69l-146 -148q43 -82 43 -205q0 -113 -23.5 -222t-74.5 -209.5t-124.5 -176.5t-181.5 -121t-237 -45q-187 0 -288 82l-127 -127zM346 446l348 355 q-26 61 -102 61q-57 0 -103.5 -40.5t-75 -106.5t-44.5 -133t-23 -136zM352 293q22 -66 105 -66q58 0 105 41.5t74.5 108.5t43.5 135t22 137z" />
<glyph unicode="&#xf9;" horiz-adv-x="1175" d="M33 352l157 744h330l-153 -725q-29 -125 75 -125q100 0 176 90l162 760h330l-168 -787q-6 -31 5 -48t36 -17q50 0 125 41l-35 -226q-49 -41 -119 -64.5t-141 -23.5q-80 0 -130.5 41t-43.5 121q-179 -162 -346 -162q-164 0 -233 94t-27 287zM381 1536h299l108 -324h-227z " />
<glyph unicode="&#xfa;" horiz-adv-x="1175" d="M33 352l157 744h330l-153 -725q-29 -125 75 -125q100 0 176 90l162 760h330l-168 -787q-6 -31 5 -48t36 -17q50 0 125 41l-35 -226q-49 -41 -119 -64.5t-141 -23.5q-80 0 -130.5 41t-43.5 121q-179 -162 -346 -162q-164 0 -233 94t-27 287zM541 1212l252 324h321 l-309 -324h-264z" />
<glyph unicode="&#xfb;" horiz-adv-x="1175" d="M33 352l157 744h330l-153 -725q-29 -125 75 -125q100 0 176 90l162 760h330l-168 -787q-6 -31 5 -48t36 -17q50 0 125 41l-35 -226q-49 -41 -119 -64.5t-141 -23.5q-80 0 -130.5 41t-43.5 121q-179 -162 -346 -162q-164 0 -233 94t-27 287zM322 1212l278 324h283 l143 -324h-248l-69 146l-131 -146h-256z" />
<glyph unicode="&#xfc;" horiz-adv-x="1175" d="M33 352l157 744h330l-153 -725q-29 -125 75 -125q100 0 176 90l162 760h330l-168 -787q-6 -31 5 -48t36 -17q50 0 125 41l-35 -226q-49 -41 -119 -64.5t-141 -23.5q-80 0 -130.5 41t-43.5 121q-179 -162 -346 -162q-164 0 -233 94t-27 287zM381 1243l55 264h248l-55 -264 h-248zM739 1243l56 264h247l-55 -264h-248z" />
<glyph unicode="&#xfd;" horiz-adv-x="1136" d="M-102 -346l94 248q146 -117 348 -117q80 0 132 38t67 109l36 172q-143 -104 -276 -104q-163 0 -231.5 95t-28.5 288l151 715h330l-147 -699q-29 -129 76 -129q45 0 93.5 28.5t84.5 70.5l153 729h330l-242 -1141q-46 -207 -189.5 -317.5t-375.5 -110.5q-249 0 -405 125z M539 1212l252 324h321l-309 -324h-264z" />
<glyph unicode="&#xfe;" horiz-adv-x="1163" d="M-125 -471l416 1966l340 41l-107 -504q163 94 295 94q72 0 124 -29t87.5 -95.5t39 -174.5t-22.5 -266q-25 -137 -74 -242t-109.5 -169.5t-138 -106t-152.5 -57t-159 -15.5q-59 0 -113 21l-86 -406zM362 279q50 -39 127 -39q37 0 65.5 13t56.5 46.5t51.5 98.5t44.5 163 q15 72 18.5 120.5t-1.5 76.5t-23 42t-37 17.5t-52 3.5q-49 0 -147 -37z" />
<glyph unicode="&#xff;" horiz-adv-x="1136" d="M-102 -346l94 248q146 -117 348 -117q80 0 132 38t67 109l36 172q-143 -104 -276 -104q-163 0 -231.5 95t-28.5 288l151 715h330l-147 -699q-29 -129 76 -129q45 0 93.5 28.5t84.5 70.5l153 729h330l-242 -1141q-46 -207 -189.5 -317.5t-375.5 -110.5q-249 0 -405 125z M356 1243l56 264h247l-55 -264h-248zM715 1243l55 264h248l-55 -264h-248z" />
<glyph unicode="&#x152;" horiz-adv-x="1855" d="M28.5 469.5q1.5 110.5 26.5 245.5q30 162 85.5 290.5t125.5 213t158 140t179 79.5t192 24q114 0 188 -37t100 -108l25 117h790l-63 -293h-500l-59 -285h475l-59 -276h-475l-60 -287h529l-64 -293h-819l24 119q-57 -70 -152 -109t-200 -39q-83 0 -151 17t-124 53.5t-94 96 t-58.5 140.5t-19 191.5zM357 534.5q-4 -78.5 7.5 -128t37.5 -80.5t60 -43.5t79 -12.5t84 12t78.5 43t72 80.5t62 128.5t51.5 183t26 182.5t-7.5 128t-37.5 80.5t-60 43t-79 12t-84 -12t-78.5 -42.5t-72 -80t-62 -128.5t-51.5 -183t-26 -182.5z" />
<glyph unicode="&#x153;" horiz-adv-x="1685" d="M4 344q0 113 23.5 223t75 211.5t125 178.5t182 123t237.5 46q208 0 283 -120q133 120 342 120q416 0 317 -479l-41 -192h-549q-36 -228 158 -228q72 0 160 30.5t162 72.5l-25 -260q-191 -99 -428 -99q-198 0 -264 127q-140 -127 -359 -127q-399 0 -399 373zM342 373 q0 -78 28.5 -112t86.5 -34q66 0 117.5 54t78.5 135t40.5 159t13.5 142q0 78 -28 111.5t-87 33.5q-66 0 -117.5 -54t-78.5 -135t-40.5 -158.5t-13.5 -141.5zM1042 657h242q25 109 8.5 157t-84.5 48q-67 0 -103.5 -48t-62.5 -157z" />
<glyph unicode="&#x178;" horiz-adv-x="1138" d="M129 1434h360l113 -576l361 576h350l-627 -932l-106 -502h-326l106 502zM455 1575l55 264h248l-56 -264h-247zM813 1575l55 264h248l-55 -264h-248z" />
<glyph unicode="&#x2c6;" horiz-adv-x="1024" d="M125 1212l278 324h283l143 -324h-247l-70 146l-131 -146h-256z" />
<glyph unicode="&#x2dc;" horiz-adv-x="1024" d="M145 1292q91 217 256 217q47 0 120.5 -30.5t94.5 -30.5q28 0 43.5 15.5t38.5 62.5l181 -72q-110 -225 -281 -225q-37 0 -106 31.5t-93 31.5q-26 0 -39 -13.5t-36 -55.5z" />
<glyph unicode="&#x2000;" horiz-adv-x="951" />
<glyph unicode="&#x2001;" horiz-adv-x="1903" />
<glyph unicode="&#x2002;" horiz-adv-x="951" />
<glyph unicode="&#x2003;" horiz-adv-x="1903" />
<glyph unicode="&#x2004;" horiz-adv-x="634" />
<glyph unicode="&#x2005;" horiz-adv-x="475" />
<glyph unicode="&#x2006;" horiz-adv-x="317" />
<glyph unicode="&#x2007;" horiz-adv-x="317" />
<glyph unicode="&#x2008;" horiz-adv-x="237" />
<glyph unicode="&#x2009;" horiz-adv-x="380" />
<glyph unicode="&#x200a;" horiz-adv-x="105" />
<glyph unicode="&#x2010;" horiz-adv-x="829" d="M82 543l59 276h588l-59 -276h-588z" />
<glyph unicode="&#x2011;" horiz-adv-x="829" d="M82 543l59 276h588l-59 -276h-588z" />
<glyph unicode="&#x2012;" horiz-adv-x="829" d="M82 543l59 276h588l-59 -276h-588z" />
<glyph unicode="&#x2013;" horiz-adv-x="1116" d="M82 543l59 276h875l-60 -276h-874z" />
<glyph unicode="&#x2014;" horiz-adv-x="1892" d="M82 543l59 276h1651l-59 -276h-1651z" />
<glyph unicode="&#x2018;" horiz-adv-x="493" d="M78 948l260 486h250l-191 -486h-319z" />
<glyph unicode="&#x2019;" horiz-adv-x="493" d="M94 948l191 486h319l-260 -486h-250z" />
<glyph unicode="&#x201a;" horiz-adv-x="493" d="M-176 -326l190 486h320l-260 -486h-250z" />
<glyph unicode="&#x201c;" horiz-adv-x="940" d="M37 948l330 486h254l-265 -486h-319zM522 948l260 486h252l-190 -486h-322z" />
<glyph unicode="&#x201d;" horiz-adv-x="940" d="M74 948l188 486h322l-260 -486h-250zM485 948l265 486h321l-334 -486h-252z" />
<glyph unicode="&#x201e;" horiz-adv-x="940" d="M-195 -326l189 486h321l-260 -486h-250zM217 -326l264 486h322l-334 -486h-252z" />
<glyph unicode="&#x2022;" horiz-adv-x="786" d="M72 682q26 128 133.5 217.5t236.5 89.5q128 0 199 -90t45 -217q-28 -128 -137 -217.5t-236 -89.5q-129 0 -199 89.5t-42 217.5z" />
<glyph unicode="&#x2026;" horiz-adv-x="1609" d="M-66 0l72 328h334l-72 -328h-334zM492 0l71 328h334l-72 -328h-333zM1051 0l71 328h334l-72 -328h-333z" />
<glyph unicode="&#x202f;" horiz-adv-x="380" />
<glyph unicode="&#x2039;" horiz-adv-x="718" d="M23 633l456 465h320l-424 -475l217 -496h-268z" />
<glyph unicode="&#x203a;" horiz-adv-x="718" d="M-80 125l424 475l-217 496h268l301 -506l-456 -465h-320z" />
<glyph unicode="&#x205f;" horiz-adv-x="475" />
<glyph unicode="&#x20ac;" d="M-47 471l37 172h112q1 9 2.5 19t3.5 20t3 14l10 45h-113l37 172h121q80 291 224 420t390 129q210 0 304.5 -107.5t68.5 -314.5l-328 -34q0 29 -1 47t-7 41t-16.5 35.5t-30.5 22t-49 9.5q-84 0 -135 -61t-88 -187h403l-70 -172h-376l-9 -43q-5 -20 -8 -55h355l-68 -172 h-299q-4 -109 38 -155t140 -46q91 0 171.5 26t180.5 75l-24 -281q-78 -38 -129 -59.5t-137 -40.5t-177 -19q-221 0 -316.5 129t-90.5 371h-129z" />
<glyph unicode="&#x2122;" horiz-adv-x="1767" d="M131 1241l41 193h645l-41 -193h-209l-112 -534h-232l113 534h-205zM684 707l248 727h285l43 -412l213 412h296l-65 -727h-238l45 423l-194 -366h-217l-39 366l-133 -423h-244z" />
<glyph unicode="&#x25fc;" horiz-adv-x="1095" d="M0 0v1096h1096v-1096h-1096z" />
<glyph unicode="&#xfb03;" horiz-adv-x="1841" d="M-313 -416l84 258q65 -26 108 -26q87 0 109 100l196 926h-135l55 254h136l14 71q23 107 73.5 187.5t121.5 129t155 72t180 23.5q71 0 125 -10l-80 -266q-33 10 -67 10q-145 0 -176 -133l-17 -84h285l14 71q44 209 184.5 311.5t340.5 102.5q72 0 131 -12l-82 -266 q-33 10 -66 10q-145 0 -176 -133l-16 -84h612l-233 -1096h-330l178 842h-283l-206 -973q-35 -171 -142 -255.5t-256 -84.5q-94 0 -194 41l90 264q45 -18 74 -18q86 0 108 100l197 926h-285l-207 -973q-35 -171 -140.5 -255.5t-252.5 -84.5q-123 0 -227 55zM1493 1227l61 289 h330l-61 -289h-330z" />
<glyph unicode="&#xfb04;" horiz-adv-x="1882" d="M-313 -416l84 258q65 -26 108 -26q87 0 109 100l196 926h-135l55 254h136l14 71q23 107 73.5 187.5t121.5 129t155 72t180 23.5q71 0 125 -10l-80 -266q-33 10 -67 10q-145 0 -176 -133l-17 -84h285l14 71q44 209 184.5 311.5t340.5 102.5q63 0 131 -12l-82 -266 q-33 10 -66 10q-65 0 -113.5 -33.5t-62.5 -99.5l-16 -84h202l-75 -254h-183l-202 -953q-74 -358 -420 -358q-90 0 -176 39l90 264q45 -18 74 -18q86 0 108 100l197 926h-285l-207 -975q-37 -171 -142 -254.5t-251 -83.5q-129 0 -227 55zM1290 237q4 57 19 128l235 1130 l340 41l-252 -1184q-9 -42 9.5 -62t54.5 -20q45 0 106 25l-49 -266q-113 -58 -250 -58q-64 0 -108.5 20t-68 53.5t-32 84.5t-4.5 108z" />
</font>
</defs>
</svg>
